<svg width="40" height="41" viewBox="0 0 40 41" fill="none" xmlns="http://www.w3.org/2000/svg">
<rect y="0.295166" width="40" height="40" rx="20" fill="#0077B5"/>
<path d="M29.6043 29.8964V22.8644C29.6043 19.4084 28.8603 16.7684 24.8283 16.7684C22.8843 16.7684 21.5883 17.8244 21.0603 18.8324H21.0123V17.0804H17.1963V29.8964H21.1803V23.5364C21.1803 21.8564 21.4923 20.2484 23.5563 20.2484C25.5963 20.2484 25.6203 22.1444 25.6203 23.6324V29.8724H29.6043V29.8964Z" fill="white"/>
<path d="M10.7139 17.0809H14.6979V29.8969H10.7139V17.0809Z" fill="white"/>
<path d="M12.7054 10.697C11.4334 10.697 10.4014 11.729 10.4014 13.001C10.4014 14.273 11.4334 15.329 12.7054 15.329C13.9774 15.329 15.0094 14.273 15.0094 13.001C15.0094 11.729 13.9774 10.697 12.7054 10.697Z" fill="white"/>
</svg>
