<svg width="16" height="17" viewBox="0 0 16 17" fill="none" xmlns="http://www.w3.org/2000/svg">
<path d="M13.3333 3.46313C13.687 3.46313 14.0261 3.60361 14.2761 3.85366C14.5262 4.10371 14.6667 4.44285 14.6667 4.79647V11.4631C14.6667 12.2031 14.0733 12.7965 13.3333 12.7965H16V14.1298H0V12.7965H2.66667C2.31304 12.7965 1.97391 12.656 1.72386 12.4059C1.47381 12.1559 1.33333 11.8168 1.33333 11.4631V4.79647C1.33333 4.05647 1.92667 3.46313 2.66667 3.46313H13.3333ZM13.3333 4.79647H2.66667V11.4631H13.3333V4.79647ZM8 8.79647C9.47333 8.79647 10.6667 9.39647 10.6667 10.1298V10.7965H5.33333V10.1298C5.33333 9.39647 6.52667 8.79647 8 8.79647ZM8 5.46313C8.35362 5.46313 8.69276 5.60361 8.94281 5.85366C9.19286 6.10371 9.33333 6.44285 9.33333 6.79647C9.33333 7.15009 9.19286 7.48923 8.94281 7.73928C8.69276 7.98933 8.35362 8.1298 8 8.1298C7.26 8.1298 6.66667 7.53647 6.66667 6.79647C6.66667 6.05647 7.26667 5.46313 8 5.46313Z" fill="#657869"/>
</svg>
