<svg width="16" height="17" viewBox="0 0 16 17" fill="none" xmlns="http://www.w3.org/2000/svg">
<path fill-rule="evenodd" clip-rule="evenodd" d="M8 2.1272C9.5913 2.1272 11.1174 2.75934 12.2426 3.88456C13.3679 5.00977 14 6.5359 14 8.1272C14 10.1765 12.8827 11.8539 11.7053 13.0572C11.1171 13.6519 10.4753 14.1911 9.788 14.6679L9.504 14.8612L9.37067 14.9499L9.11933 15.1099L8.89533 15.2465L8.618 15.4079C8.42976 15.5153 8.21675 15.5718 8 15.5718C7.78325 15.5718 7.57024 15.5153 7.382 15.4079L7.10467 15.2465L6.758 15.0332L6.63 14.9499L6.35667 14.7679C5.61522 14.2662 4.9246 13.6933 4.29467 13.0572C3.11733 11.8532 2 10.1765 2 8.1272C2 6.5359 2.63214 5.00977 3.75736 3.88456C4.88258 2.75934 6.4087 2.1272 8 2.1272ZM8 3.46053C6.76232 3.46053 5.57534 3.9522 4.70017 4.82737C3.825 5.70254 3.33333 6.88952 3.33333 8.1272C3.33333 9.6752 4.18133 11.0339 5.24733 12.1245C5.70569 12.5885 6.20111 13.0144 6.72867 13.3979L7.034 13.6152C7.13267 13.6841 7.22756 13.7481 7.31867 13.8072L7.57867 13.9739L7.80733 14.1132L8 14.2259L8.30333 14.0465L8.548 13.8932C8.67822 13.8105 8.81756 13.7179 8.966 13.6152L9.27133 13.3979C9.79889 13.0144 10.2943 12.5885 10.7527 12.1245C11.8187 11.0345 12.6667 9.6752 12.6667 8.1272C12.6667 6.88952 12.175 5.70254 11.2998 4.82737C10.4247 3.9522 9.23768 3.46053 8 3.46053ZM8 5.46053C8.70724 5.46053 9.38552 5.74148 9.88562 6.24158C10.3857 6.74168 10.6667 7.41995 10.6667 8.1272C10.6667 8.83444 10.3857 9.51272 9.88562 10.0128C9.38552 10.5129 8.70724 10.7939 8 10.7939C7.29276 10.7939 6.61448 10.5129 6.11438 10.0128C5.61428 9.51272 5.33333 8.83444 5.33333 8.1272C5.33333 7.41995 5.61428 6.74168 6.11438 6.24158C6.61448 5.74148 7.29276 5.46053 8 5.46053ZM8 6.79386C7.64638 6.79386 7.30724 6.93434 7.05719 7.18439C6.80714 7.43444 6.66667 7.77357 6.66667 8.1272C6.66667 8.48082 6.80714 8.81996 7.05719 9.07001C7.30724 9.32005 7.64638 9.46053 8 9.46053C8.35362 9.46053 8.69276 9.32005 8.94281 9.07001C9.19286 8.81996 9.33333 8.48082 9.33333 8.1272C9.33333 7.77357 9.19286 7.43444 8.94281 7.18439C8.69276 6.93434 8.35362 6.79386 8 6.79386Z" fill="#657869"/>
</svg>
