<svg width="16" height="17" viewBox="0 0 16 17" fill="none" xmlns="http://www.w3.org/2000/svg">
<path d="M2 11.2965V6.29647C2 5.94285 2.14048 5.60371 2.39052 5.35366C2.64057 5.10361 2.97971 4.96313 3.33333 4.96313H9C9.35362 4.96313 9.69276 5.10361 9.94281 5.35366C10.1929 5.60371 10.3333 5.94285 10.3333 6.29647V11.2965C10.3333 11.6501 10.1929 11.9892 9.94281 12.2393C9.69276 12.4893 9.35362 12.6298 9 12.6298H3.33333C2.97971 12.6298 2.64057 12.4893 2.39052 12.2393C2.14048 11.9892 2 11.6501 2 11.2965ZM13.4453 5.45713L10.7787 7.83247C10.7435 7.86368 10.7154 7.90197 10.6961 7.94482C10.6768 7.98768 10.6667 8.03413 10.6667 8.08113V9.26647C10.6667 9.31347 10.6768 9.35992 10.6961 9.40278C10.7154 9.44564 10.7435 9.48393 10.7787 9.51513L13.4453 11.8905C13.4934 11.9331 13.5527 11.961 13.6162 11.9707C13.6798 11.9804 13.7447 11.9716 13.8033 11.9453C13.8619 11.9189 13.9117 11.8762 13.9466 11.8222C13.9815 11.7683 14 11.7054 14 11.6411V5.70647C14 5.64221 13.9815 5.57932 13.9466 5.52537C13.9117 5.47142 13.8619 5.42869 13.8033 5.40235C13.7447 5.37601 13.6798 5.36716 13.6162 5.37688C13.5527 5.3866 13.4934 5.41447 13.4453 5.45713Z" stroke="#657869" stroke-width="1.5" stroke-linecap="round" stroke-linejoin="round"/>
</svg>
