<svg width="241" height="223" viewBox="0 0 241 223" fill="none" xmlns="http://www.w3.org/2000/svg">
<path d="M118.199 222.184C179.326 222.184 228.882 172.627 228.882 111.282C228.882 49.9368 179.326 0.380371 118.199 0.380371C57.0721 0.380371 7.51562 49.9368 7.51562 111.282C7.51562 172.627 57.0721 222.184 118.199 222.184Z" fill="#F8F8F8"/>
<path d="M36.7686 52.5565H194.17C200.501 52.5565 205.304 57.3594 205.304 63.6904V163.458C205.304 169.789 200.501 174.592 194.17 174.592H36.7686C30.4376 174.592 25.6348 169.789 25.6348 163.458V63.6904C25.6348 57.3594 30.8742 52.5565 36.7686 52.5565Z" fill="url(#paint0_linear_151_4352)"/>
<g filter="url(#filter0_d_151_4352)">
<path d="M175.131 63.6818L176.469 171.392C176.469 175.071 173.458 177.915 169.779 177.915H64.7448C61.0652 177.915 58.0547 174.904 58.0547 171.392V32.9075C58.0547 29.2279 61.0652 26.3846 64.7448 26.3846H140.844L175.131 63.6818Z" fill="url(#paint1_linear_151_4352)"/>
</g>
<path d="M126.127 48.9635H75.7846C74.6139 48.9635 73.6104 47.96 73.6104 46.7892C73.6104 45.6184 74.6139 44.6149 75.7846 44.6149H126.127C127.298 44.6149 128.302 45.6184 128.302 46.7892C128.302 47.96 127.298 48.9635 126.127 48.9635Z" fill="#E1E1E1"/>
<path d="M95.1858 61.0061H75.7846C74.6139 61.0061 73.6104 60.0026 73.6104 58.8318C73.6104 57.661 74.6139 56.6575 75.7846 56.6575H95.0186C96.1893 56.6575 97.1928 57.661 97.1928 58.8318C97.1928 60.0026 96.1893 61.0061 95.1858 61.0061Z" fill="#E1E1E1"/>
<path d="M140.845 26.3846V56.1554C140.845 60.3367 144.524 63.6818 148.706 63.6818H175.131" fill="#E1E1E1"/>
<path d="M161.117 86.4391H142.866H138.342H76.4125C75.6325 86.4391 74.8525 87.2207 74.8525 88.315C74.8525 89.2529 75.4765 90.1909 76.4125 90.1909H138.342H142.866H160.961C162.053 90.1909 162.677 89.4093 162.677 88.315C162.677 87.377 162.053 86.4391 161.117 86.4391Z" fill="#E1E1E1"/>
<path d="M194.608 89.0145H143.523C138.502 89.0145 133.699 90.761 129.988 93.8174L116.671 104.733C112.96 107.789 108.157 109.536 103.136 109.536H45.5019C39.6075 109.536 34.8047 114.339 34.8047 120.233C34.8047 120.67 34.8047 121.324 35.023 121.761L45.7202 178.085C46.5934 183.325 50.9597 187.254 56.4174 187.254H179.763C185.002 187.254 189.587 183.543 190.46 178.303L205.305 101.24C206.397 95.3455 202.467 90.1061 196.573 89.0145C195.699 89.0145 195.045 89.0145 194.608 89.0145Z" fill="#F9F9F9"/>
<g filter="url(#filter1_dd_151_4352)">
<path d="M217.53 73.9513H151.164C144.615 73.9513 138.502 76.1344 133.481 80.2823L116.016 94.4725C111.213 98.402 104.882 100.803 98.3328 100.803H23.234C15.5932 100.803 9.48047 107.134 9.48047 114.557C9.48047 115.212 9.48047 115.867 9.69878 116.522L23.4523 190.092C24.5439 197.078 30.4383 202.099 37.2059 202.099H197.882C204.868 202.099 210.544 197.297 211.636 190.311L231.066 89.6696C232.375 82.0288 227.354 75.2611 219.713 73.733C219.058 73.9513 218.185 73.9513 217.53 73.9513Z" fill="url(#paint2_linear_151_4352)"/>
</g>
<path d="M215.318 216.497L183.244 184.487C149.389 209.384 102.972 185.109 102.972 144.474C102.972 116.821 125.512 94.4133 153.131 94.4133C193.044 94.4133 217.545 139.228 194.292 173.105L226.543 205.294C229.662 208.406 229.662 213.385 226.543 216.497C223.425 219.609 218.436 219.609 215.318 216.497ZM153.131 110.33C134.243 110.33 118.83 125.712 118.83 144.563C118.83 174.884 155.18 189.466 176.028 169.993C199.637 147.942 183.868 110.33 153.131 110.33Z" fill="#C8C8C8"/>
<path d="M149.656 152.033C149.567 151.321 149.478 150.61 149.478 149.81C149.478 146.875 150.725 144.208 153.844 141.896L156.516 139.94C158.209 138.695 158.922 137.272 158.922 135.583C158.922 133.093 157.14 130.692 153.398 130.692C149.478 130.692 147.785 133.804 147.785 136.917C147.785 137.539 147.874 138.161 147.964 138.695L141.014 138.428C140.836 137.628 140.747 136.739 140.747 135.938C140.747 129.981 145.202 124.29 153.309 124.29C161.862 124.29 166.317 129.625 166.317 135.227C166.317 139.584 164.089 142.607 160.882 144.919L158.655 146.52C156.695 147.853 155.715 149.632 155.715 151.855V152.21H149.656V152.033ZM152.775 155.589C155.18 155.589 157.14 157.545 157.14 159.946C157.14 162.347 155.18 164.303 152.775 164.303C150.369 164.303 148.409 162.347 148.409 159.946C148.409 157.545 150.369 155.589 152.775 155.589Z" fill="#C8C8C8"/>
<defs>
<filter id="filter0_d_151_4352" x="36.0547" y="15.3846" width="162.414" height="195.53" filterUnits="userSpaceOnUse" color-interpolation-filters="sRGB">
<feFlood flood-opacity="0" result="BackgroundImageFix"/>
<feColorMatrix in="SourceAlpha" type="matrix" values="0 0 0 0 0 0 0 0 0 0 0 0 0 0 0 0 0 0 127 0" result="hardAlpha"/>
<feOffset dy="11"/>
<feGaussianBlur stdDeviation="11"/>
<feColorMatrix type="matrix" values="0 0 0 0 0.397708 0 0 0 0 0.47749 0 0 0 0 0.575 0 0 0 0.27 0"/>
<feBlend mode="normal" in2="BackgroundImageFix" result="effect1_dropShadow_151_4352"/>
<feBlend mode="normal" in="SourceGraphic" in2="effect1_dropShadow_151_4352" result="shape"/>
</filter>
<filter id="filter1_dd_151_4352" x="0.480469" y="68.733" width="239.793" height="146.367" filterUnits="userSpaceOnUse" color-interpolation-filters="sRGB">
<feFlood flood-opacity="0" result="BackgroundImageFix"/>
<feColorMatrix in="SourceAlpha" type="matrix" values="0 0 0 0 0 0 0 0 0 0 0 0 0 0 0 0 0 0 127 0" result="hardAlpha"/>
<feOffset dy="4"/>
<feGaussianBlur stdDeviation="4.5"/>
<feColorMatrix type="matrix" values="0 0 0 0 0.397708 0 0 0 0 0.47749 0 0 0 0 0.575 0 0 0 0.15 0"/>
<feBlend mode="normal" in2="BackgroundImageFix" result="effect1_dropShadow_151_4352"/>
<feColorMatrix in="SourceAlpha" type="matrix" values="0 0 0 0 0 0 0 0 0 0 0 0 0 0 0 0 0 0 127 0" result="hardAlpha"/>
<feOffset dy="1"/>
<feGaussianBlur stdDeviation="0.5"/>
<feComposite in2="hardAlpha" operator="out"/>
<feColorMatrix type="matrix" values="0 0 0 0 0 0 0 0 0 0 0 0 0 0 0 0 0 0 0.03 0"/>
<feBlend mode="normal" in2="effect1_dropShadow_151_4352" result="effect2_dropShadow_151_4352"/>
<feBlend mode="normal" in="SourceGraphic" in2="effect2_dropShadow_151_4352" result="shape"/>
</filter>
<linearGradient id="paint0_linear_151_4352" x1="115.484" y1="56.7959" x2="115.484" y2="125.293" gradientUnits="userSpaceOnUse">
<stop stop-color="#D0D0D0" stop-opacity="0.8"/>
<stop offset="1" stop-color="#D0D0D0"/>
</linearGradient>
<linearGradient id="paint1_linear_151_4352" x1="117.223" y1="22.8796" x2="117.223" y2="179.548" gradientUnits="userSpaceOnUse">
<stop stop-color="#FDFEFF"/>
<stop offset="0.9964" stop-color="#ECF0F5"/>
</linearGradient>
<linearGradient id="paint2_linear_151_4352" x1="120.304" y1="70.7637" x2="120.304" y2="203.483" gradientUnits="userSpaceOnUse">
<stop stop-color="#FDFEFF"/>
<stop offset="0.9964" stop-color="#ECF0F5"/>
</linearGradient>
</defs>
</svg>
