<svg width="16" height="17" viewBox="0 0 16 17" fill="none" xmlns="http://www.w3.org/2000/svg">
<path d="M13.3333 10.7952C13.3333 12.0377 13.3333 12.6589 13.1303 13.149C12.8596 13.8024 12.3405 14.3215 11.6871 14.5922C11.197 14.7952 10.5758 14.7952 9.33331 14.7952H7.33331C4.81916 14.7952 3.56207 14.7952 2.78102 14.0141C1.99997 13.233 1.99998 11.976 2 9.46177L2.00004 5.46172C2.00005 3.98902 3.19392 2.79517 4.66662 2.79517" stroke="#657869" stroke-width="1.2" stroke-linecap="round" stroke-linejoin="round"/>
<path d="M6.66794 6.46313L6.95708 9.10907C6.98468 9.33027 7.12061 9.52307 7.32541 9.61107C7.78274 9.80747 8.63928 10.1298 9.33461 10.1298C10.03 10.1298 10.8865 9.80747 11.3439 9.61107C11.5487 9.52307 11.6846 9.33027 11.7122 9.10907L12.0013 6.46313M13.6679 5.79647V8.30927M9.33461 3.46313L4.66797 5.46313L9.33461 7.46313L14.0013 5.46313L9.33461 3.46313Z" stroke="#657869" stroke-width="1.2" stroke-linecap="round" stroke-linejoin="round"/>
</svg>
