<svg width="16" height="17" viewBox="0 0 16 17" fill="none" xmlns="http://www.w3.org/2000/svg">
<path d="M1.66797 4.79647L5.33464 3.46313L9.0013 4.79647L7.33464 5.79647V6.79647C7.33464 6.79647 6.89017 6.46313 5.33464 6.46313C3.77908 6.46313 3.33464 6.79647 3.33464 6.79647V5.79647L1.66797 4.79647ZM1.66797 4.79647V7.46313" stroke="#657869" stroke-width="1.2" stroke-linecap="round" stroke-linejoin="round"/>
<path d="M7.33203 6.46313V7.05573C7.33203 8.2012 6.4366 9.1298 5.33203 9.1298C4.22746 9.1298 3.33203 8.2012 3.33203 7.05573V6.46313" stroke="#657869" stroke-width="1.2" stroke-linecap="round" stroke-linejoin="round"/>
<path d="M10.2121 8.1481C10.2121 8.1481 10.5353 7.91283 11.6667 7.91283C12.798 7.91283 13.1212 8.1481 13.1212 8.1481M10.2121 8.1481V7.46183L9 6.79517L11.6667 5.79517L14.3333 6.79517L13.1212 7.46183V8.1481M10.2121 8.1481V8.34063C10.2121 9.14397 10.8633 9.79517 11.6667 9.79517C12.47 9.79517 13.1212 9.14397 13.1212 8.34063V8.1481" stroke="#657869" stroke-width="1.2" stroke-linecap="round" stroke-linejoin="round"/>
<path d="M2.92206 11.4125C2.29328 11.7635 0.644637 12.4802 1.64877 13.3771C2.13928 13.8152 2.68558 14.1285 3.37242 14.1285H7.29163C7.9785 14.1285 8.52477 13.8152 9.0153 13.3771C10.0194 12.4802 8.37076 11.7635 7.74196 11.4125C6.2675 10.5894 4.39656 10.5894 2.92206 11.4125Z" stroke="#657869" stroke-width="1.2" stroke-linecap="round" stroke-linejoin="round"/>
<path d="M10.668 14.1298H13.1378C13.653 14.1298 14.0627 13.8791 14.4306 13.5287C15.1837 12.8112 13.9472 12.2378 13.4756 11.957C12.6254 11.4507 11.5994 11.3337 10.668 11.6059" stroke="#657869" stroke-width="1.2" stroke-linecap="round" stroke-linejoin="round"/>
</svg>
