<svg width="36" height="36" viewBox="0 0 36 36" fill="none" xmlns="http://www.w3.org/2000/svg">
<path d="M29.8501 15.8407L29.2801 17.2507C29.1001 17.7307 29.1001 18.2407 29.2801 18.7207L29.8501 20.1307C30.1801 20.9707 29.9101 21.9307 29.1601 22.4707L27.9001 23.3407C27.4801 23.6407 27.2101 24.0907 27.0901 24.5707L26.8201 26.0707C26.6401 26.9707 25.8901 27.6307 24.9901 27.6607L23.4601 27.7207C22.9501 27.7507 22.4701 27.9607 22.1101 28.3207L21.0601 29.4307C20.4301 30.0907 19.4401 30.2407 18.6601 29.7907L17.3401 29.0107C16.8901 28.7407 16.3801 28.6807 15.8701 28.8007L14.3701 29.1607C13.5001 29.3707 12.5701 28.9507 12.1501 28.1407L11.4601 26.7607C11.2201 26.3107 10.8301 25.9507 10.3501 25.8007L8.91012 25.3207C8.04012 25.0207 7.50012 24.1807 7.59012 23.2807L7.74012 21.7507C7.80012 21.2407 7.65012 20.7307 7.32012 20.3407L6.36012 19.1407C5.79012 18.4207 5.79012 17.4307 6.36012 16.7107L7.32012 15.5107C7.65012 15.1207 7.80012 14.6107 7.74012 14.1007L7.59012 12.5707C7.50012 11.6707 8.04012 10.8307 8.91012 10.5307L10.3501 10.0507C10.8301 9.90073 11.2201 9.54073 11.4601 9.09073L12.1501 7.71073C12.5701 6.90073 13.4701 6.48073 14.3701 6.69073L15.8701 7.05073C16.3501 7.17073 16.8901 7.11073 17.3401 6.84073L18.6601 6.06073C19.4401 5.61073 20.4301 5.73073 21.0601 6.42073L22.1101 7.53073C22.4701 7.89073 22.9501 8.13073 23.4601 8.13073L24.9901 8.19073C25.8901 8.22073 26.6701 8.88073 26.8201 9.78073L27.0901 11.2807C27.1801 11.7907 27.4801 12.2407 27.9001 12.5107L29.1601 13.3807C29.9101 14.0407 30.2101 15.0007 29.8501 15.8407Z" fill="#00D566"/>
<g opacity="0.15">
<path d="M13.0201 28.0509L12.3301 26.6709C12.0901 26.2209 11.7001 25.8609 11.2201 25.7109L9.78012 25.2309C8.91012 24.9309 8.37012 24.0909 8.46012 23.1909L8.61012 21.6609C8.67012 21.1509 8.52012 20.6409 8.19012 20.2509L7.23012 19.0509C6.66012 18.3309 6.66012 17.3409 7.23012 16.6209L8.19012 15.4209C8.52012 15.0309 8.67012 14.5209 8.61012 14.0109L8.46012 12.4809C8.37012 11.5809 8.91012 10.7409 9.78012 10.4409L11.2201 9.96092C11.7001 9.81092 12.0901 9.45092 12.3301 9.00092L13.0201 7.62092C13.2601 7.14092 13.6801 6.81092 14.1301 6.66092C13.3201 6.54092 12.5101 6.96092 12.1501 7.71092L11.4601 9.09092C11.2201 9.54092 10.8301 9.90092 10.3501 10.0509L8.91012 10.5309C8.04012 10.8309 7.50012 11.6709 7.59012 12.5709L7.74012 14.1009C7.80012 14.6109 7.65012 15.1209 7.32012 15.5109L6.36012 16.7109C5.79012 17.4309 5.79012 18.4209 6.36012 19.1409L7.32012 20.3409C7.65012 20.7309 7.80012 21.2409 7.74012 21.7509L7.59012 23.2809C7.50012 24.1809 8.04012 25.0209 8.91012 25.3209L10.3501 25.8009C10.8301 25.9509 11.2201 26.3109 11.4601 26.7609L12.1501 28.1409C12.5701 28.9509 13.4701 29.3709 14.3701 29.1609L14.5501 29.1309C13.8901 29.0109 13.3201 28.6509 13.0201 28.0509Z" fill="black"/>
<path d="M18.1812 6.75034L19.5012 5.97034C19.6212 5.91034 19.7412 5.85034 19.8612 5.82034C19.4412 5.76034 18.9912 5.85034 18.6312 6.06034L17.3112 6.84034C17.1912 6.90034 17.0712 6.96034 16.9512 6.99034C17.3712 7.05034 17.7912 6.99034 18.1812 6.75034Z" fill="black"/>
<path d="M24.3009 27.6017C24.1509 27.6017 24.0009 27.6317 23.8809 27.6617L24.9609 27.6017C25.1109 27.6017 25.2309 27.5717 25.3809 27.5417L24.3009 27.6017Z" fill="black"/>
<path d="M19.5013 29.6713L18.1812 28.8913C17.7312 28.6213 17.2213 28.5613 16.7113 28.6813L16.5312 28.7113C16.8012 28.7413 17.0412 28.8313 17.2812 28.9513L18.6013 29.7313C19.1113 30.0313 19.6813 30.0613 20.2213 29.8813C19.9813 29.8813 19.7413 29.8213 19.5013 29.6713Z" fill="black"/>
</g>
<path d="M13.2012 16.0801L16.9512 20.3701L24.6312 14.1901" fill="#00D566"/>
<path d="M16.0492 22.5903C15.6292 22.5903 15.2092 22.4103 14.9092 22.0803L11.1592 17.7903C10.6192 17.1603 10.6792 16.2303 11.2792 15.6603C11.9092 15.1203 12.8392 15.1803 13.4092 15.7803L16.2292 18.9903L22.7992 13.7103C23.4292 13.2003 24.3892 13.2903 24.8992 13.9503C25.4092 14.6103 25.3192 15.5403 24.6592 16.0503L16.9792 22.2603C16.7092 22.4703 16.3792 22.5903 16.0492 22.5903Z" fill="white"/>
</svg>
