<svg width="32" height="33" viewBox="0 0 32 33" fill="none" xmlns="http://www.w3.org/2000/svg">
<path d="M16 0.295166C20.4183 0.295166 24.4257 2.08599 27.3174 4.97774C30.2092 7.86948 32 11.8768 32 16.2952C32 20.7135 30.2092 24.7209 27.3174 27.6126C24.4257 30.5043 20.4183 32.2952 16 32.2952C11.5817 32.2952 7.57431 30.5043 4.68257 27.6126C1.79083 24.7209 0 20.7135 0 16.2952C0 11.8768 1.79083 7.86948 4.68257 4.97774C7.57431 2.08599 11.5817 0.295166 16 0.295166ZM17.0128 1.07315C17.9523 1.90984 18.8037 2.80526 19.5523 3.75939C20.6532 5.16856 21.5486 6.69517 22.2385 8.28049H28.9908C28.3596 7.26764 27.6257 6.34287 26.789 5.50618C24.2495 2.96673 20.8147 1.32269 17.0128 1.07315ZM22.5321 9.02911C23.3835 11.2456 23.8385 13.5796 23.8972 15.9282H31.2514C31.1927 13.4328 30.5321 11.0842 29.4165 9.02911H22.5321ZM23.8972 16.6621C23.8679 19.0108 23.4275 21.3447 22.5908 23.5612H29.4165C30.5321 21.5062 31.1927 19.1576 31.2514 16.6621H23.8972ZM22.2826 24.3098C21.5927 25.9245 20.6826 27.4805 19.5376 28.9043C18.789 29.8291 17.9523 30.7098 17.0275 31.5172C20.8294 31.2676 24.2495 29.6236 26.789 27.0842C27.6257 26.2475 28.3596 25.3227 28.9908 24.3098H22.2826ZM16.367 31.1062C17.3358 30.2842 18.2018 29.3887 18.9505 28.4493C19.9927 27.1576 20.8294 25.7631 21.4752 24.3098H16.367V31.1062ZM21.7982 23.5612C22.6642 21.3594 23.1193 19.0108 23.1486 16.6621H16.367V23.5612H21.7982ZM23.1486 15.9282C23.0899 13.5796 22.6202 11.2456 21.7395 9.02911H16.367V15.9282H23.1486ZM21.4312 8.28049C20.7853 6.85663 19.9633 5.4915 18.9651 4.21443C18.2018 3.24562 17.3358 2.33553 16.367 1.49884V8.28049H21.4312ZM15.633 1.49884C14.6642 2.33553 13.7982 3.24562 13.0349 4.21443C12.0367 5.4915 11.2147 6.85663 10.5688 8.28049H15.633V1.49884ZM10.2606 9.02911C9.37982 11.2456 8.91009 13.5796 8.85138 15.9282H15.633V9.02911H10.2606ZM8.85138 16.6621C8.88073 19.0108 9.33578 21.3594 10.2018 23.5612H15.633V16.6621H8.85138ZM10.5248 24.3098C11.1706 25.7631 12.0073 27.1576 13.0495 28.4493C13.7982 29.3887 14.6642 30.2842 15.633 31.1062V24.3098H10.5248ZM14.9725 31.5172C14.0477 30.7098 13.211 29.8291 12.4624 28.9043C11.3174 27.4805 10.4073 25.9245 9.71743 24.3098H3.00917C3.64037 25.3227 4.37431 26.2475 5.21101 27.0842C7.75046 29.6236 11.1706 31.2676 14.9725 31.5172ZM9.40917 23.5612C8.57248 21.3447 8.13211 19.0108 8.10275 16.6621H0.748624C0.807339 19.1576 1.46789 21.5062 2.58349 23.5612H9.40917ZM8.10275 15.9282C8.16147 13.5796 8.61651 11.2456 9.46789 9.02911H2.58349C1.46789 11.0842 0.807339 13.4328 0.748624 15.9282H8.10275ZM9.76147 8.28049C10.4514 6.69517 11.3468 5.16856 12.4477 3.75939C13.1963 2.80526 14.0477 1.90984 14.9872 1.07315C11.1853 1.32269 7.75046 2.96673 5.21101 5.50618C4.37431 6.34287 3.64037 7.26764 3.00917 8.28049H9.76147Z" fill="#217738"/>
</svg>
