<svg width="41" height="40" viewBox="0 0 41 40" fill="none" xmlns="http://www.w3.org/2000/svg">
<path d="M31.3335 29.73C33.051 29.4778 34.2713 28.9902 35.2142 28.0473C37.1668 26.0948 37.1668 22.952 37.1668 16.6667C37.1668 10.3813 37.1668 7.23858 35.2142 5.28594C33.2617 3.33333 30.1188 3.33333 23.8335 3.33333H17.1668C10.8814 3.33333 7.73875 3.33333 5.78611 5.28594C3.8335 7.23858 3.8335 10.3813 3.8335 16.6667C3.8335 22.952 3.8335 26.0948 5.78611 28.0473C7.13308 29.3943 9.04633 29.8122 12.1668 29.9417" stroke="white" stroke-width="3" stroke-linecap="round"/>
<path d="M28.8332 11.6667H12.1665" stroke="white" stroke-width="3" stroke-linecap="round" stroke-linejoin="round"/>
<path d="M24.6668 24.1667C24.6668 26.4678 22.8013 28.3333 20.5002 28.3333C18.199 28.3333 16.3335 26.4678 16.3335 24.1667C16.3335 21.8655 18.199 20 20.5002 20C22.8013 20 24.6668 21.8655 24.6668 24.1667Z" stroke="white" stroke-width="3"/>
<path d="M16.3335 24.1667C16.3335 30.9432 19.2038 34.7843 20.5002 36.6667L23.0002 31.6667L25.9168 33.3333L28.8335 35C27.609 33.8147 26.3432 30.0785 26.3432 30.0785" stroke="white" stroke-width="3" stroke-linecap="round" stroke-linejoin="round"/>
</svg>
