<svg width="24" height="25" viewBox="0 0 24 25" fill="none" xmlns="http://www.w3.org/2000/svg">
<path d="M19 6.10736H17C17 3.30736 14.8 1.10736 12 1.10736C9.2 1.10736 7 3.30736 7 6.10736H5C3.9 6.10736 3 7.00736 3 8.10736V20.1074C3 21.2074 3.9 22.1074 5 22.1074H19C20.1 22.1074 21 21.2074 21 20.1074V8.10736C21 7.00736 20.1 6.10736 19 6.10736ZM12 3.10736C13.7 3.10736 15 4.40736 15 6.10736H9C9 4.40736 10.3 3.10736 12 3.10736ZM19 20.1074H5V8.10736H19V20.1074ZM12 12.1074C10.3 12.1074 9 10.8074 9 9.10736H7C7 11.9074 9.2 14.1074 12 14.1074C14.8 14.1074 17 11.9074 17 9.10736H15C15 10.8074 13.7 12.1074 12 12.1074Z" fill="black"/>
</svg>
