<svg width="24" height="25" viewBox="0 0 24 25" fill="none" xmlns="http://www.w3.org/2000/svg">
<path d="M12 2.10736C17.523 2.10736 22 6.58436 22 12.1074C22 17.6304 17.523 22.1074 12 22.1074C6.477 22.1074 2 17.6304 2 12.1074C2 6.58436 6.477 2.10736 12 2.10736ZM12 4.10736C9.87827 4.10736 7.84344 4.95022 6.34315 6.45051C4.84285 7.9508 4 9.98563 4 12.1074C4 14.2291 4.84285 16.2639 6.34315 17.7642C7.84344 19.2645 9.87827 20.1074 12 20.1074C14.1217 20.1074 16.1566 19.2645 17.6569 17.7642C19.1571 16.2639 20 14.2291 20 12.1074C20 9.98563 19.1571 7.9508 17.6569 6.45051C16.1566 4.95022 14.1217 4.10736 12 4.10736ZM12 16.1074C12.2652 16.1074 12.5196 16.2127 12.7071 16.4003C12.8946 16.5878 13 16.8421 13 17.1074C13 17.3726 12.8946 17.6269 12.7071 17.8145C12.5196 18.002 12.2652 18.1074 12 18.1074C11.7348 18.1074 11.4804 18.002 11.2929 17.8145C11.1054 17.6269 11 17.3726 11 17.1074C11 16.8421 11.1054 16.5878 11.2929 16.4003C11.4804 16.2127 11.7348 16.1074 12 16.1074ZM12 6.60736C12.8423 6.60739 13.6583 6.90072 14.3078 7.43696C14.9573 7.97321 15.3998 8.7189 15.5593 9.54594C15.7188 10.373 15.5853 11.2297 15.1818 11.9691C14.7783 12.7084 14.1299 13.2841 13.348 13.5974C13.2322 13.6399 13.1278 13.7087 13.043 13.7984C12.999 13.8484 12.992 13.9124 12.993 13.9784L13 14.1074C12.9997 14.3622 12.9021 14.6074 12.7272 14.7927C12.5522 14.9781 12.313 15.0896 12.0586 15.1045C11.8042 15.1195 11.5536 15.0367 11.3582 14.8731C11.1627 14.7095 11.0371 14.4775 11.007 14.2244L11 14.1074V13.8574C11 12.7044 11.93 12.0124 12.604 11.7414C12.8783 11.6318 13.1176 11.4496 13.2962 11.2143C13.4748 10.9791 13.5859 10.6996 13.6176 10.4059C13.6493 10.1122 13.6004 9.81549 13.4762 9.5475C13.352 9.27952 13.1571 9.05043 12.9125 8.88484C12.6679 8.71925 12.3829 8.62342 12.0879 8.60763C11.793 8.59184 11.4993 8.6567 11.2384 8.79523C10.9775 8.93377 10.7593 9.14074 10.6072 9.39394C10.4551 9.64714 10.3748 9.93699 10.375 10.2324C10.375 10.4976 10.2696 10.7519 10.0821 10.9395C9.89457 11.127 9.64022 11.2324 9.375 11.2324C9.10978 11.2324 8.85543 11.127 8.66789 10.9395C8.48036 10.7519 8.375 10.4976 8.375 10.2324C8.375 9.27095 8.75692 8.34892 9.43674 7.6691C10.1166 6.98928 11.0386 6.60736 12 6.60736Z" fill="black"/>
</svg>
