<svg width="41" height="40" viewBox="0 0 41 40" fill="none" xmlns="http://www.w3.org/2000/svg">
<path d="M4.4165 10L13.5832 6.66667L22.7498 10L18.5832 12.5V15C18.5832 15 17.472 14.1667 13.5832 14.1667C9.69429 14.1667 8.58317 15 8.58317 15V12.5L4.4165 10ZM4.4165 10V16.6667" stroke="white" stroke-width="2" stroke-linecap="round" stroke-linejoin="round"/>
<path d="M18.5835 14.1667V15.6482C18.5835 18.5118 16.3449 20.8333 13.5835 20.8333C10.8221 20.8333 8.5835 18.5118 8.5835 15.6482V14.1667" stroke="white" stroke-width="2" stroke-linecap="round" stroke-linejoin="round"/>
<path d="M25.7803 18.3823C25.7803 18.3823 26.5883 17.7942 29.4167 17.7942C32.245 17.7942 33.053 18.3823 33.053 18.3823M25.7803 18.3823V16.6667L22.75 15L29.4167 12.5L36.0833 15L33.053 16.6667V18.3823M25.7803 18.3823V18.8637C25.7803 20.872 27.4083 22.5 29.4167 22.5C31.425 22.5 33.053 20.872 33.053 18.8637V18.3823" stroke="white" stroke-width="2" stroke-linecap="round" stroke-linejoin="round"/>
<path d="M7.55858 26.5434C5.98661 27.4209 1.86501 29.2127 4.37534 31.4549C5.60161 32.55 6.96738 33.3334 8.68446 33.3334H18.4825C20.1997 33.3334 21.5653 32.55 22.7917 31.4549C25.302 29.2127 21.1803 27.4209 19.6083 26.5434C15.9222 24.4855 11.2448 24.4855 7.55858 26.5434Z" stroke="white" stroke-width="2" stroke-linecap="round" stroke-linejoin="round"/>
<path d="M26.9165 33.3333H33.0912C34.379 33.3333 35.4033 32.7067 36.323 31.8305C38.2058 30.0368 35.1147 28.6033 33.9357 27.9013C31.8102 26.6357 29.2452 26.3432 26.9165 27.0235" stroke="white" stroke-width="2" stroke-linecap="round" stroke-linejoin="round"/>
</svg>
