<svg width="18" height="25" viewBox="0 0 18 25" fill="none" xmlns="http://www.w3.org/2000/svg">
<g clip-path="url(#clip0_170_431)">
<path d="M17.3391 5.08907L13.4062 1.15625C12.9844 0.734378 12.4125 0.495316 11.8172 0.495316H2.25C1.00781 0.500003 0 1.50782 0 2.75V22.25C0 23.4922 1.00781 24.5 2.25 24.5H15.75C16.9922 24.5 18 23.4922 18 22.25V6.68282C18 6.0875 17.7609 5.51094 17.3391 5.08907ZM15.5672 6.5H12V2.93282L15.5672 6.5ZM2.25 22.25V2.75H9.75V7.625C9.75 8.24844 10.2516 8.75 10.875 8.75H15.75V22.25H2.25ZM12.5672 12.5C12.3 12.5 12.0703 12.6875 12.0187 12.9453C11.0531 17.525 11.0625 17.4172 11.0344 17.7969C11.025 17.7406 11.0156 17.675 11.0016 17.5953C10.9641 17.3563 11.0156 17.6047 9.89531 12.9313C9.83438 12.6781 9.60938 12.5 9.34687 12.5H8.72344C8.46563 12.5 8.24062 12.6781 8.175 12.9266C7.03125 17.5672 7.05 17.4359 7.0125 17.7875C7.00781 17.7359 7.00313 17.6703 6.98906 17.5906C6.95625 17.3469 6.32812 14.1547 6.09375 12.95C6.04219 12.6875 5.8125 12.4953 5.54062 12.4953H4.75313C4.3875 12.4953 4.12031 12.8375 4.20469 13.1891C4.57969 14.7172 5.45625 18.3219 5.76094 19.5641C5.82188 19.8172 6.04688 19.9906 6.30938 19.9906H7.49063C7.74844 19.9906 7.97344 19.8172 8.03437 19.5641L8.87344 16.2172C8.94375 15.9266 8.99063 15.6547 9.01406 15.4063L9.15 16.2172C9.15469 16.2359 9.74063 18.5844 9.98906 19.5641C10.05 19.8125 10.275 19.9906 10.5328 19.9906H11.6906C11.9484 19.9906 12.1734 19.8172 12.2344 19.5641C13.2094 15.725 13.65 13.9859 13.8516 13.1891C13.9406 12.8328 13.6734 12.4906 13.3078 12.4906H12.5672V12.5Z" fill="#657869"/>
</g>
<defs>
<clipPath id="clip0_170_431">
<rect width="18" height="24" fill="white" transform="translate(0 0.5)"/>
</clipPath>
</defs>
</svg>
