<svg width="25" height="25" viewBox="0 0 25 25" fill="none" xmlns="http://www.w3.org/2000/svg">
<path d="M13.1437 8.57429V16.4257L14.0026 15.6629C14.1309 15.5575 14.2951 15.506 14.4606 15.519C14.6262 15.5321 14.7803 15.6086 14.8906 15.7327C15.001 15.8568 15.059 16.0188 15.0526 16.1847C15.0462 16.3506 14.9758 16.5076 14.8563 16.6229L12.9303 18.3354C12.8145 18.4393 12.6649 18.4977 12.5094 18.4998C12.3538 18.5018 12.2028 18.4474 12.0843 18.3466L12.074 18.338L10.1454 16.6237C10.0179 16.5105 9.94054 16.3513 9.93041 16.181C9.92029 16.0108 9.9782 15.8435 10.0914 15.716C10.2046 15.5885 10.3639 15.5111 10.5341 15.501C10.7043 15.4909 10.8716 15.5488 10.9991 15.662L11.858 16.4249V8.57429L10.9991 9.33714C10.8707 9.44245 10.7066 9.49399 10.541 9.48097C10.3755 9.46795 10.2214 9.39138 10.1111 9.26729C10.0007 9.1432 9.94266 8.98123 9.94906 8.8153C9.95546 8.64937 10.0258 8.49235 10.1454 8.37714L12.074 6.66286C12.1916 6.55839 12.3435 6.50069 12.5008 6.50069C12.6582 6.50069 12.81 6.55839 12.9277 6.66286L14.8563 8.37714C14.9758 8.49235 15.0462 8.64937 15.0526 8.8153C15.059 8.98123 15.001 9.1432 14.8906 9.26729C14.7803 9.39138 14.6262 9.46795 14.4606 9.48097C14.2951 9.49399 14.1309 9.44245 14.0026 9.33714L13.1437 8.57429ZM6.28655 3.07143C5.43407 3.07143 4.6165 3.41008 4.01371 4.01287C3.41091 4.61567 3.07227 5.43323 3.07227 6.28571V18.7143C3.07227 19.5668 3.41091 20.3843 4.01371 20.9871C4.6165 21.5899 5.43407 21.9286 6.28655 21.9286H18.7151C19.5676 21.9286 20.3852 21.5899 20.988 20.9871C21.5908 20.3843 21.9294 19.5668 21.9294 18.7143V6.28571C21.9294 5.43323 21.5908 4.61567 20.988 4.01287C20.3852 3.41008 19.5676 3.07143 18.7151 3.07143H6.28655ZM18.7151 4.35714C19.2266 4.35714 19.7172 4.56033 20.0788 4.92201C20.4405 5.28369 20.6437 5.77422 20.6437 6.28571V6.92857H14.5177L15.4263 7.736C15.5814 7.874 15.7006 8.03771 15.7854 8.21429H20.6437V16.7857H15.7854C15.6998 16.9683 15.5772 17.1312 15.4254 17.264L14.5168 18.0714H20.6437V18.7143C20.6437 19.2258 20.4405 19.7163 20.0788 20.078C19.7172 20.4397 19.2266 20.6429 18.7151 20.6429H6.28655C5.77506 20.6429 5.28452 20.4397 4.92285 20.078C4.56117 19.7163 4.35798 19.2258 4.35798 18.7143V18.0714H10.484L9.57541 17.264C9.42564 17.1295 9.30364 16.967 9.21627 16.7857H4.35798V8.21429H9.21627C9.30027 8.03771 9.42027 7.874 9.57627 7.736L10.4848 6.92857H4.35798V6.28571C4.35798 5.77422 4.56117 5.28369 4.92285 4.92201C5.28452 4.56033 5.77506 4.35714 6.28655 4.35714H18.7151Z" fill="#657869"/>
</svg>
