<svg width="25" height="25" viewBox="0 0 25 25" fill="none" xmlns="http://www.w3.org/2000/svg">
<path d="M4.5 7.13301C4.64 7.07634 4.80767 7.01601 5.003 6.95201C5.97252 6.64683 6.9836 6.49434 8 6.50001C9.0164 6.49434 10.0275 6.64683 10.997 6.95201C11.1923 7.01601 11.36 7.07634 11.5 7.13301V18.013C10.3657 17.6671 9.18582 17.4942 8 17.5C6.54 17.5 5.351 17.748 4.5 18.013V7.13301ZM12.5 5.38501C12.2101 5.25712 11.9137 5.14463 11.612 5.04801C10.4437 4.67894 9.22515 4.49405 8 4.50001C6.474 4.50001 5.245 4.77101 4.388 5.04801C4.04689 5.15763 3.71263 5.28753 3.387 5.43701C3.26603 5.49302 3.14697 5.55306 3.03 5.61701L3.005 5.63101L2.996 5.63601L2.993 5.63801C2.991 5.64001 2.745 5.78501 2.99 5.64001C2.84072 5.72851 2.71705 5.85435 2.63114 6.00513C2.54522 6.15592 2.50003 6.32646 2.5 6.50001V19.5C2.50003 19.6765 2.54678 19.8499 2.63549 20.0025C2.72421 20.155 2.85173 20.2814 3.0051 20.3688C3.15847 20.4561 3.33224 20.5013 3.50873 20.4998C3.68523 20.4983 3.85818 20.45 4.01 20.36L4.005 20.363L4.008 20.362L4.009 20.361L4.046 20.341C4.08333 20.321 4.144 20.291 4.228 20.251C4.398 20.173 4.658 20.063 5.003 19.951C5.97257 19.6462 6.98366 19.494 8 19.5C9.01634 19.494 10.0274 19.6462 10.997 19.951C11.261 20.0356 11.5198 20.1357 11.772 20.251C11.8475 20.286 11.9218 20.3234 11.995 20.363M11.995 20.363L11.993 20.362L11.992 20.361C12.306 20.546 12.696 20.546 13.01 20.361L13.047 20.341C13.0843 20.321 13.145 20.291 13.229 20.251C13.4812 20.1357 13.74 20.0356 14.004 19.951C14.9732 19.6463 15.984 19.4941 17 19.5C18.0163 19.494 19.0274 19.6462 19.997 19.951C20.261 20.0356 20.5198 20.1357 20.772 20.251C20.8461 20.2854 20.9191 20.3221 20.991 20.361C21.1429 20.4508 21.3158 20.4988 21.4922 20.5002C21.6687 20.5016 21.8423 20.4562 21.9956 20.3688C22.1488 20.2814 22.2762 20.1549 22.3648 20.0023C22.4534 19.8498 22.5 19.6764 22.5 19.5V6.50001C22.5 6.32646 22.4548 6.15592 22.3689 6.00513C22.283 5.85435 22.1593 5.72851 22.01 5.64001L22.008 5.63901L22.004 5.63601L21.994 5.63101L21.97 5.61701C21.853 5.55306 21.734 5.49302 21.613 5.43701C21.2877 5.28757 20.9538 5.15767 20.613 5.04801C19.4444 4.67883 18.2255 4.49395 17 4.50001C15.475 4.50001 14.245 4.77101 13.388 5.04801C13.0863 5.14463 12.7899 5.25712 12.5 5.38501M20.5 7.13301V18.013C19.3657 17.6671 18.1858 17.4942 17 17.5C15.54 17.5 14.351 17.748 13.5 18.013V7.13301C13.64 7.07634 13.8077 7.01601 14.003 6.95201C14.9725 6.64683 15.9836 6.49434 17 6.50001C18.0164 6.49434 19.0275 6.64683 19.997 6.95201C20.1923 7.01601 20.36 7.07634 20.5 7.13301ZM20.99 7.36101L20.995 7.36301H20.994L20.99 7.36101ZM20.991 20.361L20.994 20.363L20.992 20.361" fill="#657869"/>
</svg>
