<svg width="25" height="25" viewBox="0 0 25 25" fill="none" xmlns="http://www.w3.org/2000/svg">
<path d="M17.75 14H16.25C16.0511 14 15.8603 14.079 15.7197 14.2197C15.579 14.3603 15.5 14.5511 15.5 14.75V19.9747C15.4974 20.1682 15.5682 20.3556 15.6981 20.4991C15.828 20.6426 16.0075 20.7316 16.2003 20.7481C16.3029 20.7549 16.4058 20.7406 16.5026 20.706C16.5994 20.6713 16.6881 20.6172 16.7631 20.5468C16.8381 20.4765 16.8978 20.3915 16.9385 20.2971C16.9793 20.2027 17.0002 20.1009 17 19.9981V19.2481H17.6937C19.1225 19.2481 20.3319 18.1306 20.3741 16.7028C20.3845 16.3517 20.3243 16.002 20.1971 15.6746C20.0699 15.3471 19.8783 15.0485 19.6336 14.7965C19.3889 14.5444 19.0961 14.3441 18.7726 14.2073C18.449 14.0705 18.1013 14 17.75 14ZM17.7172 17.75H17V15.5H17.75C17.9074 15.4993 18.0631 15.5315 18.2072 15.5948C18.3513 15.658 18.4805 15.7507 18.5866 15.867C18.6926 15.9832 18.773 16.1205 18.8227 16.2698C18.8724 16.4191 18.8902 16.5771 18.875 16.7338C18.8423 17.0165 18.7057 17.277 18.4918 17.4648C18.2778 17.6526 18.0018 17.7542 17.7172 17.75ZM13.25 14.75V19.9747C13.2526 20.1682 13.1818 20.3556 13.0519 20.4991C12.922 20.6426 12.7425 20.7316 12.5497 20.7481C12.4471 20.7549 12.3442 20.7406 12.2474 20.706C12.1506 20.6713 12.0619 20.6172 11.9869 20.5468C11.9119 20.4765 11.8522 20.3915 11.8115 20.2971C11.7707 20.2027 11.7498 20.1009 11.75 19.9981V14.7753C11.7474 14.5818 11.8182 14.3944 11.9481 14.2509C12.078 14.1074 12.2575 14.0184 12.4503 14.0019C12.5527 13.9951 12.6555 14.0094 12.7522 14.0439C12.8488 14.0784 12.9374 14.1324 13.0124 14.2025C13.0873 14.2727 13.1471 14.3574 13.188 14.4516C13.2289 14.5458 13.25 14.6473 13.25 14.75ZM9.5 20.0497C9.48341 20.2429 9.39417 20.4226 9.25028 20.5526C9.10639 20.6825 8.91856 20.7531 8.72469 20.75H5.77156C5.66683 20.751 5.563 20.7307 5.46632 20.6904C5.36964 20.6501 5.28213 20.5907 5.20906 20.5156C5.09706 20.3989 5.02577 20.2492 5.00583 20.0887C4.9859 19.9282 5.01838 19.7655 5.09844 19.625L7.45719 15.5H5.77531C5.58144 15.5031 5.39361 15.4325 5.24972 15.3026C5.10583 15.1726 5.01659 14.9929 5 14.7997C4.99319 14.6971 5.00754 14.5942 5.04217 14.4974C5.0768 14.4006 5.13096 14.3119 5.2013 14.2369C5.27163 14.1619 5.35664 14.1022 5.45103 14.0615C5.54542 14.0207 5.64718 13.9998 5.75 14H8.72844C8.83317 13.999 8.937 14.0193 9.03368 14.0596C9.13036 14.0999 9.21787 14.1593 9.29094 14.2344C9.40369 14.3505 9.47585 14.5 9.49663 14.6605C9.51741 14.821 9.48571 14.984 9.40625 15.125L7.04281 19.25H8.75C8.85282 19.2498 8.95458 19.2707 9.04897 19.3115C9.14336 19.3522 9.22837 19.4119 9.2987 19.4869C9.36904 19.5619 9.4232 19.6506 9.45783 19.7474C9.49246 19.8442 9.50681 19.9471 9.5 20.0497ZM20.5306 8.21938L15.2806 2.96938C15.2109 2.89975 15.1282 2.84454 15.0371 2.8069C14.9461 2.76926 14.8485 2.74992 14.75 2.75H5.75C5.35218 2.75 4.97064 2.90804 4.68934 3.18934C4.40804 3.47064 4.25 3.85218 4.25 4.25V11.375C4.25 11.4745 4.28951 11.5698 4.35984 11.6402C4.43016 11.7105 4.52554 11.75 4.625 11.75H20.375C20.4745 11.75 20.5698 11.7105 20.6402 11.6402C20.7105 11.5698 20.75 11.4745 20.75 11.375V8.75C20.7501 8.65148 20.7307 8.55391 20.6931 8.46286C20.6555 8.37182 20.6003 8.28908 20.5306 8.21938ZM14.75 8.75V4.625L18.875 8.75H14.75Z" fill="#657869"/>
</svg>
