<svg width="36" height="37" viewBox="0 0 36 37" fill="none" xmlns="http://www.w3.org/2000/svg">
<path d="M14.6858 24.6687L14.6835 24.6619L14.256 24.5224C12.2228 23.8038 10.439 22.5159 9.117 20.8122C8.04799 19.4356 7.31345 17.8294 6.97133 16.1204C6.6292 14.4114 6.68884 12.6463 7.14555 10.9642C7.60225 9.2822 8.44353 7.72929 9.60302 6.42799C10.7625 5.1267 12.2085 4.1126 13.8269 3.4657C15.4454 2.8188 17.192 2.55679 18.929 2.70033C20.666 2.84387 22.3459 3.38905 23.8362 4.29285C25.3265 5.19665 26.5864 6.43435 27.5165 7.90833C28.4467 9.38232 29.0216 11.0523 29.196 12.7864C29.2568 13.4052 28.746 13.9092 28.125 13.9092C27.504 13.9092 27.0068 13.4029 26.9325 12.7864C26.7317 11.1953 26.1094 9.68674 25.1299 8.41682C24.1505 7.14691 22.8495 6.16177 21.3615 5.56336C19.8736 4.96494 18.2528 4.77498 16.6669 5.01313C15.0809 5.25129 13.5874 5.9089 12.3408 6.91793C11.0943 7.92696 10.14 9.25075 9.57671 10.7523C9.01343 12.2539 8.86162 13.8787 9.13699 15.4587C9.41235 17.0386 10.1049 18.5162 11.1429 19.7387C12.181 20.9612 13.5268 21.8841 15.0413 22.4119C15.4232 21.7152 16.0388 21.1756 16.7796 20.8881C17.5203 20.6007 18.3387 20.5838 19.0907 20.8404C19.8427 21.097 20.48 21.6107 20.8905 22.2911C21.3009 22.9714 21.4582 23.7748 21.3345 24.5597C21.2109 25.3446 20.8143 26.0607 20.2145 26.5819C19.6148 27.1031 18.8504 27.396 18.056 27.409C17.2615 27.4221 16.4879 27.1544 15.8714 26.6531C15.2549 26.1518 14.8351 25.4491 14.6858 24.6687ZM12.9015 26.4124C10.6979 25.5128 8.77127 24.0465 7.317 22.1622C6.94736 22.7165 6.75007 23.3679 6.75 24.0342V25.1592C6.75 29.5939 10.935 34.1592 18 34.1592C25.065 34.1592 29.25 29.5939 29.25 25.1592V24.0342C29.25 23.1391 28.8944 22.2806 28.2615 21.6477C27.6286 21.0148 26.7701 20.6592 25.875 20.6592H22.5C22.9719 21.2894 23.3063 22.0117 23.4814 22.7794C23.6566 23.547 23.6686 24.3428 23.5168 25.1154C23.365 25.8879 23.0526 26.62 22.6 27.2643C22.1474 27.9085 21.5646 28.4506 20.8892 28.8554C20.2139 29.2601 19.4611 29.5186 18.6796 29.6141C17.8981 29.7096 17.1052 29.64 16.3523 29.4097C15.5993 29.1795 14.9031 28.7937 14.3087 28.2774C13.7143 27.7611 13.2349 27.1257 12.9015 26.4124ZM24.75 13.9092C24.75 11.8527 23.8298 10.0099 22.3785 8.77244C21.6699 8.17225 20.8451 7.72472 19.9557 7.45784C19.0663 7.19096 18.1313 7.11047 17.2094 7.2214C16.2874 7.33234 15.3982 7.63231 14.5975 8.10256C13.7968 8.57282 13.1017 9.20323 12.5557 9.95438C12.0097 10.7055 11.6246 11.5612 11.4244 12.468C11.2243 13.3748 11.2133 14.3131 11.3924 15.2243C11.5714 16.1355 11.9365 17 12.4648 17.7636C12.9932 18.5273 13.6734 19.1737 14.463 19.6624C15.4635 18.8513 16.712 18.4082 18 18.4069C19.2874 18.4069 20.5359 18.8485 21.537 19.6579C22.5189 19.0539 23.3297 18.2083 23.8922 17.202C24.4546 16.1957 24.7499 15.062 24.75 13.9092Z" fill="#0B2711"/>
</svg>
