<svg width="36" height="37" viewBox="0 0 36 37" fill="none" xmlns="http://www.w3.org/2000/svg">
<path d="M34.5 12.4092V27.4092C34.5 29.0592 33.15 30.4092 31.5 30.4092H7.5C6.675 30.4092 6 29.7342 6 28.9092C6 28.0842 6.675 27.4092 7.5 27.4092H31.5V12.4092C31.5 11.5842 32.175 10.9092 33 10.9092C33.825 10.9092 34.5 11.5842 34.5 12.4092ZM6 24.4092C3.51 24.4092 1.5 22.3992 1.5 19.9092V10.9092C1.5 8.41918 3.51 6.40918 6 6.40918H24C26.49 6.40918 28.5 8.41918 28.5 10.9092V21.4092C28.5 23.0592 27.15 24.4092 25.5 24.4092H6ZM10.5 15.4092C10.5 17.8992 12.51 19.9092 15 19.9092C17.49 19.9092 19.5 17.8992 19.5 15.4092C19.5 12.9192 17.49 10.9092 15 10.9092C12.51 10.9092 10.5 12.9192 10.5 15.4092Z" fill="#0B2711"/>
</svg>
