<svg width="36" height="37" viewBox="0 0 36 37" fill="none" xmlns="http://www.w3.org/2000/svg">
<path d="M16.005 19.9392C15.675 19.9242 15.345 19.9092 15 19.9092C11.37 19.9092 7.98 20.9142 5.085 22.6392C3.765 23.4192 3 24.8892 3 26.4342V30.4092H16.89C15.8301 28.898 15.1898 27.1329 15.0343 25.2936C14.8789 23.4544 15.2138 21.6068 16.005 19.9392Z" fill="#0B2711"/>
<path d="M15 18.4092C18.3137 18.4092 21 15.7229 21 12.4092C21 9.09547 18.3137 6.40918 15 6.40918C11.6863 6.40918 9 9.09547 9 12.4092C9 15.7229 11.6863 18.4092 15 18.4092Z" fill="#0B2711"/>
<path d="M31.1259 24.4092C31.1259 24.0792 31.0809 23.7792 31.0359 23.4642L32.7459 21.9492L31.2459 19.3542L29.0709 20.0892C28.5909 19.6842 28.0509 19.3692 27.4509 19.1442L27.0009 16.9092H24.0009L23.5509 19.1442C22.9509 19.3692 22.4109 19.6842 21.9309 20.0892L19.7559 19.3542L18.2559 21.9492L19.9659 23.4642C19.9209 23.7792 19.8759 24.0792 19.8759 24.4092C19.8759 24.7392 19.9209 25.0392 19.9659 25.3542L18.2559 26.8692L19.7559 29.4642L21.9309 28.7292C22.4109 29.1342 22.9509 29.4492 23.5509 29.6742L24.0009 31.9092H27.0009L27.4509 29.6742C28.0509 29.4492 28.5909 29.1342 29.0709 28.7292L31.2459 29.4642L32.7459 26.8692L31.0359 25.3542C31.0809 25.0392 31.1259 24.7392 31.1259 24.4092ZM25.5009 27.4092C23.8509 27.4092 22.5009 26.0592 22.5009 24.4092C22.5009 22.7592 23.8509 21.4092 25.5009 21.4092C27.1509 21.4092 28.5009 22.7592 28.5009 24.4092C28.5009 26.0592 27.1509 27.4092 25.5009 27.4092Z" fill="#0B2711"/>
</svg>
