<svg width="36" height="37" viewBox="0 0 36 37" fill="none" xmlns="http://www.w3.org/2000/svg">
<path fill-rule="evenodd" clip-rule="evenodd" d="M14.1072 4.75466C15.1503 3.86582 16.4663 3.36085 17.8362 3.32374C19.2062 3.28662 20.5475 3.7196 21.6372 4.55066L21.8922 4.75466L22.4562 5.23466C22.8668 5.58511 23.3643 5.8183 23.8962 5.90966L24.1632 5.94266L24.9027 6.00266C26.2726 6.11197 27.5635 6.68822 28.5595 7.63509C29.5555 8.58195 30.1963 9.84203 30.3747 11.2047L30.4062 11.5047L30.4662 12.2457C30.5087 12.7831 30.6953 13.2992 31.0062 13.7397L31.1712 13.9527L31.6542 14.5167C32.5431 15.5598 33.048 16.8757 33.0852 18.2457C33.1223 19.6156 32.6893 20.957 31.8582 22.0467L31.6542 22.3017L31.1727 22.8657C30.8223 23.2762 30.5891 23.7737 30.4977 24.3057L30.4647 24.5727L30.4062 25.3122C30.2969 26.6821 29.7207 27.9729 28.7738 28.9689C27.8269 29.965 26.5669 30.6057 25.2042 30.7842L24.9027 30.8157L24.1632 30.8757C23.6258 30.9181 23.1097 31.1047 22.6692 31.4157L22.4562 31.5822L21.8907 32.0622C20.8478 32.9512 19.5319 33.4565 18.162 33.4938C16.7921 33.5312 15.4506 33.0985 14.3607 32.2677L14.1072 32.0637L13.5432 31.5822C13.1327 31.2317 12.6352 30.9985 12.1032 30.9072L11.8362 30.8757L11.0967 30.8157C9.72683 30.7064 8.43596 30.1301 7.43995 29.1832C6.44394 28.2364 5.80316 26.9763 5.62474 25.6137L5.59324 25.3137L5.53324 24.5727C5.49076 24.0352 5.30422 23.5191 4.99324 23.0787L4.82674 22.8657L4.34524 22.3002C3.4564 21.2571 2.95143 19.9411 2.91431 18.5712C2.8772 17.2012 3.31018 15.8599 4.14124 14.7702L4.34524 14.5167L4.82524 13.9527C5.17569 13.5421 5.40888 13.0446 5.50024 12.5127L5.53324 12.2457L5.59324 11.5062C5.70254 10.1363 6.2788 8.84539 7.22566 7.84938C8.17253 6.85337 9.43261 6.21258 10.7952 6.03416L11.0952 6.00266L11.8362 5.94266C12.3737 5.90018 12.8898 5.71364 13.3302 5.40266L13.5432 5.23616L14.1072 4.75466ZM21.7497 19.9092C21.153 19.9092 20.5807 20.1462 20.1587 20.5682C19.7368 20.9901 19.4997 21.5624 19.4997 22.1592C19.4997 22.7559 19.7368 23.3282 20.1587 23.7502C20.5807 24.1721 21.153 24.4092 21.7497 24.4092C22.3465 24.4092 22.9188 24.1721 23.3407 23.7502C23.7627 23.3282 23.9997 22.7559 23.9997 22.1592C23.9997 21.5624 23.7627 20.9901 23.3407 20.5682C22.9188 20.1462 22.3465 19.9092 21.7497 19.9092ZM21.4392 12.8487L12.4392 21.8487C12.296 21.987 12.1817 22.1525 12.1031 22.3356C12.0245 22.5186 11.9831 22.7154 11.9814 22.9146C11.9796 23.1137 12.0176 23.3112 12.093 23.4956C12.1684 23.6799 12.2798 23.8474 12.4206 23.9883C12.5615 24.1291 12.729 24.2405 12.9133 24.3159C13.0977 24.3913 13.2952 24.4293 13.4943 24.4275C13.6935 24.4258 13.8903 24.3844 14.0733 24.3058C14.2564 24.2272 14.4219 24.1129 14.5602 23.9697L23.5602 14.9697C23.8335 14.6868 23.9847 14.3079 23.9812 13.9146C23.9778 13.5213 23.8201 13.145 23.542 12.8669C23.2639 12.5888 22.8876 12.4311 22.4943 12.4277C22.101 12.4242 21.7221 12.5754 21.4392 12.8487ZM14.2497 12.4092C13.653 12.4092 13.0807 12.6462 12.6587 13.0682C12.2368 13.4901 11.9997 14.0624 11.9997 14.6592C11.9997 15.2559 12.2368 15.8282 12.6587 16.2502C13.0807 16.6721 13.653 16.9092 14.2497 16.9092C14.8465 16.9092 15.4188 16.6721 15.8407 16.2502C16.2627 15.8282 16.4997 15.2559 16.4997 14.6592C16.4997 14.0624 16.2627 13.4901 15.8407 13.0682C15.4188 12.6462 14.8465 12.4092 14.2497 12.4092Z" fill="#0B2711"/>
</svg>
