<svg width="31" height="30" viewBox="0 0 31 30" fill="none" xmlns="http://www.w3.org/2000/svg">
<path d="M25.4999 18.75C25.4999 21.0798 25.4999 22.2445 25.1193 23.1634C24.6118 24.3885 23.6384 25.3619 22.4133 25.8694C21.4944 26.25 20.3296 26.25 18 26.25H14.25C9.53593 26.25 7.17888 26.25 5.71441 24.7855C4.24994 23.321 4.24996 20.964 4.25 16.2499L4.25008 8.74979C4.2501 5.98847 6.4886 3.75 9.24991 3.75" stroke="white" stroke-width="2" stroke-linecap="round" stroke-linejoin="round"/>
<path d="M13 10.625L13.5421 15.5861C13.5938 16.0009 13.8487 16.3624 14.2327 16.5274C15.0902 16.8956 16.6962 17.5 18 17.5C19.3038 17.5 20.9098 16.8956 21.7673 16.5274C22.1513 16.3624 22.4062 16.0009 22.458 15.5861L22.9999 10.625M26.1249 9.375V14.0865M18 5L9.25 8.75L18 12.5L26.7499 8.75L18 5Z" stroke="white" stroke-width="2" stroke-linecap="round" stroke-linejoin="round"/>
</svg>
