<svg width="37" height="36" viewBox="0 0 37 36" fill="none" xmlns="http://www.w3.org/2000/svg">
<path d="M24.135 26.6104C23.1918 27.2422 20.7189 28.5324 22.2251 30.1467C22.9608 30.9352 23.7804 31.4992 24.8106 31.4992H27.75H30.6894C31.7196 31.4992 32.5392 30.9352 33.275 30.1467C34.7811 28.5324 32.3082 27.2422 31.365 26.6104C29.1533 25.1289 26.3468 25.1289 24.135 26.6104Z" stroke="white" stroke-width="2"/>
<path d="M30.75 18.75C30.75 20.4069 29.4069 21.75 27.75 21.75C26.0931 21.75 24.75 20.4069 24.75 18.75C24.75 17.0931 26.0931 15.75 27.75 15.75C29.4069 15.75 30.75 17.0931 30.75 18.75Z" stroke="white" stroke-width="2"/>
<path d="M15.75 9H23.25M15.75 4.5H27.75" stroke="white" stroke-width="2" stroke-linecap="round" stroke-linejoin="round"/>
<path d="M11.25 14.25V21.0001C11.25 22.4143 11.25 23.1214 10.8107 23.5607C10.3713 24.0001 9.66422 24.0001 8.25 24.0001H6.75C5.33579 24.0001 4.62869 24.0001 4.18934 23.5607C3.75 23.1214 3.75 22.4143 3.75 21.0001V17.2501C3.75 15.8359 3.75 15.1288 4.18934 14.6893C4.62869 14.25 5.33579 14.25 6.75 14.25H11.25ZM11.25 14.25H18.75" stroke="white" stroke-width="2" stroke-linecap="round" stroke-linejoin="round"/>
<path d="M10.5 7.5C10.5 9.15686 9.15685 10.5 7.5 10.5C5.84314 10.5 4.5 9.15686 4.5 7.5C4.5 5.84315 5.84314 4.5 7.5 4.5C9.15685 4.5 10.5 5.84315 10.5 7.5Z" stroke="white" stroke-width="2"/>
</svg>
