<svg width="24" height="25" viewBox="0 0 24 25" fill="none" xmlns="http://www.w3.org/2000/svg">
<path fill-rule="evenodd" clip-rule="evenodd" d="M19 4.10736C19.7652 4.10732 20.5015 4.39969 21.0583 4.92464C21.615 5.4496 21.9501 6.16747 21.995 6.93136L22 7.10736V17.1074C22 17.8726 21.7077 18.6089 21.1827 19.1656C20.6578 19.7224 19.9399 20.0575 19.176 20.1024L19 20.1074H5C4.23479 20.1074 3.49849 19.815 2.94174 19.2901C2.38499 18.7651 2.04989 18.0473 2.005 17.2834L2 17.1074V7.10736C1.99996 6.34215 2.29233 5.60585 2.81728 5.0491C3.34224 4.49235 4.06011 4.15725 4.824 4.11236L5 4.10736H19ZM20 10.1074H4V17.1074C4.00003 17.3523 4.08996 17.5887 4.25272 17.7717C4.41547 17.9548 4.63975 18.0717 4.883 18.1004L5 18.1074H19C19.2449 18.1073 19.4813 18.0174 19.6644 17.8546C19.8474 17.6919 19.9643 17.4676 19.993 17.2244L20 17.1074V10.1074ZM14.707 11.5714L16.535 13.4004C16.7225 13.5879 16.8278 13.8422 16.8278 14.1074C16.8278 14.3725 16.7225 14.6268 16.535 14.8144L14.707 16.6424C14.6148 16.7379 14.5044 16.8141 14.3824 16.8665C14.2604 16.9189 14.1292 16.9465 13.9964 16.9476C13.8636 16.9488 13.7319 16.9235 13.609 16.8732C13.4861 16.8229 13.3745 16.7486 13.2806 16.6548C13.1867 16.5609 13.1125 16.4492 13.0622 16.3263C13.0119 16.2034 12.9866 16.0717 12.9877 15.939C12.9889 15.8062 13.0165 15.675 13.0689 15.553C13.1213 15.431 13.1975 15.3206 13.293 15.2284L13.413 15.1074H9C8.73478 15.1074 8.48043 15.002 8.29289 14.8145C8.10536 14.6269 8 14.3726 8 14.1074C8 13.8421 8.10536 13.5878 8.29289 13.4003C8.48043 13.2127 8.73478 13.1074 9 13.1074H13.414L13.293 12.9864C13.1054 12.7989 12.9999 12.5445 12.9998 12.2792C12.9997 12.0139 13.105 11.7595 13.2925 11.5719C13.48 11.3842 13.7344 11.2788 13.9996 11.2787C14.2649 11.2786 14.5194 11.3839 14.707 11.5714ZM19 6.10736H5C4.73478 6.10736 4.48043 6.21272 4.29289 6.40025C4.10536 6.58779 4 6.84214 4 7.10736V8.10736H20V7.10736C20 6.84214 19.8946 6.58779 19.7071 6.40025C19.5196 6.21272 19.2652 6.10736 19 6.10736Z" fill="black"/>
</svg>
