<svg width="24" height="25" viewBox="0 0 24 25" fill="none" xmlns="http://www.w3.org/2000/svg">
<path fill-rule="evenodd" clip-rule="evenodd" d="M6 8.35736H18C18.9946 8.35736 19.9484 8.75245 20.6516 9.45571C21.3549 10.159 21.75 11.1128 21.75 12.1074C21.75 13.1019 21.3549 14.0557 20.6516 14.759C19.9484 15.4623 18.9946 15.8574 18 15.8574H6C5.00544 15.8574 4.05161 15.4623 3.34835 14.759C2.64509 14.0557 2.25 13.1019 2.25 12.1074C2.25 11.1128 2.64509 10.159 3.34835 9.45571C4.05161 8.75245 5.00544 8.35736 6 8.35736ZM0 12.1074C0 10.5161 0.632141 8.98994 1.75736 7.86472C2.88258 6.7395 4.4087 6.10736 6 6.10736H18C19.5913 6.10736 21.1174 6.7395 22.2426 7.86472C23.3679 8.98994 24 10.5161 24 12.1074C24 13.6987 23.3679 15.2248 22.2426 16.35C21.1174 17.4752 19.5913 18.1074 18 18.1074H6C4.4087 18.1074 2.88258 17.4752 1.75736 16.35C0.632141 15.2248 0 13.6987 0 12.1074ZM6 10.6074C5.60218 10.6074 5.22064 10.7654 4.93934 11.0467C4.65804 11.328 4.5 11.7095 4.5 12.1074C4.5 12.5052 4.65804 12.8867 4.93934 13.168C5.22064 13.4493 5.60218 13.6074 6 13.6074H13.5C13.8978 13.6074 14.2794 13.4493 14.5607 13.168C14.842 12.8867 15 12.5052 15 12.1074C15 11.7095 14.842 11.328 14.5607 11.0467C14.2794 10.7654 13.8978 10.6074 13.5 10.6074H6Z" fill="black"/>
</svg>
