<svg width="20" height="21" viewBox="0 0 20 21" fill="none" xmlns="http://www.w3.org/2000/svg">
<path d="M1.1663 18.8715L7.5303 12.5075M15.5443 9.67753L13.6393 15.3935C13.6088 15.485 13.5567 15.5677 13.4874 15.6347C13.4181 15.7017 13.3337 15.751 13.2413 15.7785L1.5633 19.2505C1.45809 19.2818 1.34633 19.2836 1.24017 19.2557C1.13402 19.2278 1.03753 19.1714 0.961228 19.0925C0.884922 19.0136 0.831714 18.9153 0.807395 18.8083C0.783077 18.7013 0.788578 18.5896 0.823302 18.4855L4.6153 7.11153C4.64248 7.02986 4.68691 6.955 4.74557 6.89202C4.80424 6.82904 4.87577 6.77942 4.9553 6.74653L10.3423 4.52853C10.4518 4.4833 10.5723 4.47151 10.6885 4.49464C10.8047 4.51778 10.9115 4.5748 10.9953 4.65853L15.3993 9.06353C15.4781 9.14231 15.5334 9.24149 15.559 9.34993C15.5846 9.45838 15.5795 9.57182 15.5443 9.67753Z" stroke="#0B2711" stroke-width="1.5" stroke-linecap="round" stroke-linejoin="round"/>
<path d="M16.2735 1.45153L18.6375 3.81553C18.8152 3.98549 18.9571 4.18922 19.0549 4.41477C19.1528 4.64032 19.2046 4.88314 19.2073 5.12898C19.21 5.37482 19.1636 5.61873 19.0708 5.84639C18.9779 6.07404 18.8406 6.28087 18.6667 6.45471C18.4929 6.62856 18.286 6.76593 18.0584 6.85875C17.8307 6.95158 17.5868 6.998 17.341 6.99528C17.0951 6.99256 16.8523 6.94076 16.6268 6.84292C16.4012 6.74509 16.1975 6.60318 16.0275 6.42553L13.6625 4.06153C13.329 3.71288 13.1452 3.24747 13.1505 2.76498C13.1558 2.28249 13.3499 1.82127 13.6911 1.48007C14.0323 1.13888 14.4935 0.94484 14.976 0.939505C15.4585 0.93417 15.9249 1.11796 16.2735 1.45153Z" fill="#FADB68" stroke="#0B2711" stroke-width="1.5" stroke-linecap="round" stroke-linejoin="round"/>
<path d="M9.6512 10.3855C9.51283 10.2423 9.34731 10.128 9.1643 10.0494C8.9813 9.97078 8.78447 9.9294 8.5853 9.92767C8.38613 9.92594 8.18861 9.96389 8.00427 10.0393C7.81992 10.1147 7.65244 10.2261 7.51161 10.367C7.37077 10.5078 7.25939 10.6753 7.18397 10.8596C7.10854 11.044 7.07059 11.2415 7.07232 11.4406C7.07405 11.6398 7.11543 11.8366 7.19405 12.0197C7.27266 12.2027 7.38693 12.3682 7.5302 12.5065C7.8131 12.7798 8.192 12.931 8.5853 12.9276C8.9786 12.9241 9.35481 12.7664 9.63293 12.4883C9.91104 12.2102 10.0688 11.8339 10.0722 11.4406C10.0756 11.0474 9.92444 10.6684 9.6512 10.3855Z" stroke="#0B2711" stroke-width="1.5" stroke-linecap="round" stroke-linejoin="round"/>
</svg>
