<svg width="40" height="40" viewBox="0 0 40 40" fill="none" xmlns="http://www.w3.org/2000/svg">
<path d="M3.33008 13.3329C3.33008 15.5696 16.8238 21.6675 19.9762 21.6675C23.1287 21.6675 36.6223 15.5696 36.6223 13.3329C36.6223 11.0963 23.1287 4.99837 19.9762 4.99837C16.8238 4.99837 3.33008 11.0963 3.33008 13.3329Z" stroke="white" stroke-width="3" stroke-linecap="round" stroke-linejoin="round"/>
<path d="M9.98682 18.3333L12.0723 28.0003C12.2152 28.6625 12.5449 29.2812 13.0948 29.6757C16.7977 32.333 23.1512 32.333 26.8542 29.6757C27.4042 29.2812 27.7338 28.6625 27.8767 28.0003L29.9622 18.3333" stroke="white" stroke-width="3" stroke-linecap="round" stroke-linejoin="round"/>
<path d="M34.1291 15.8317V27.5002M34.1291 27.5002C32.8108 29.911 32.2278 31.2027 31.6356 33.3344C31.5071 34.0929 31.6092 34.475 32.1312 34.8144C32.3433 34.9522 32.5981 35.0012 32.8508 35.0012H35.3818C35.6508 35.0012 35.9223 34.945 36.144 34.792C36.6291 34.457 36.754 34.0894 36.6225 33.3344C36.1035 31.355 35.4423 30.0019 34.1291 27.5002Z" stroke="white" stroke-width="3" stroke-linecap="round" stroke-linejoin="round"/>
</svg>
