<svg width="1920" height="346" viewBox="0 0 1920 346" fill="none" xmlns="http://www.w3.org/2000/svg" xmlns:xlink="http://www.w3.org/1999/xlink">
<rect width="1920" height="346" fill="url(#paint0_linear_289_263)"/>
<rect width="1920" height="346" fill="url(#pattern0_289_263)" fill-opacity="0.15"/>
<defs>
<linearGradient id="paint0_linear_289_263" x1="960" y1="0" x2="960" y2="346" gradientUnits="userSpaceOnUse">
<stop stop-color="#FBCF3A"/>
<stop offset="1" stop-color="#FADC6C"/>
</linearGradient>
<pattern id="pattern0_289_263" patternUnits="userSpaceOnUse" viewBox="-838 -5748 1080 810" width="125.43750107288361%" height="522.05202758656753%" x="-244.2" y="-730.15" patternContentUnits="objectBoundingBox">
<path d="M-702.112 -5748C-702.112 -5673.74 -642.15 -5613.48 -568 -5613.01V-5613C-642.15 -5612.52 -702.112 -5552.26 -702.112 -5478H-703C-703 -5552.56 -763.442 -5613 -838 -5613C-763.442 -5613 -703 -5673.44 -703 -5748H-702.112Z" fill="white"/>
<path d="M107.888 -5748C107.888 -5673.74 167.85 -5613.48 242 -5613.01V-5613C167.85 -5612.52 107.888 -5552.26 107.888 -5478H107C107 -5552.56 46.5584 -5613 -28 -5613C46.5584 -5613 107 -5673.44 107 -5748H107.888Z" fill="white"/>
<path d="M-702.112 -5478C-702.112 -5403.74 -642.15 -5343.48 -568 -5343.01V-5343C-642.15 -5342.52 -702.112 -5282.26 -702.112 -5208H-703C-703 -5282.56 -763.442 -5343 -838 -5343C-763.442 -5343 -703 -5403.44 -703 -5478H-702.112Z" fill="white"/>
<path d="M-702.112 -5208C-702.112 -5133.74 -642.15 -5073.48 -568 -5073.01V-5073C-642.15 -5072.52 -702.112 -5012.26 -702.112 -4938H-703C-703 -5012.56 -763.442 -5073 -838 -5073C-763.442 -5073 -703 -5133.44 -703 -5208H-702.112Z" fill="white"/>
<path d="M107.888 -5478C107.888 -5403.74 167.85 -5343.48 242 -5343.01V-5343C167.85 -5342.52 107.888 -5282.26 107.888 -5208H107C107 -5282.56 46.5584 -5343 -28 -5343C46.5584 -5343 107 -5403.44 107 -5478H107.888Z" fill="white"/>
<path d="M107.888 -5208C107.888 -5133.74 167.85 -5073.48 242 -5073.01V-5073C167.85 -5072.52 107.888 -5012.26 107.888 -4938H107C107 -5012.56 46.5584 -5073 -28 -5073C46.5584 -5073 107 -5133.44 107 -5208H107.888Z" fill="white"/>
<path d="M-432.112 -5748C-432.112 -5673.74 -372.15 -5613.48 -298 -5613.01V-5613C-372.15 -5612.52 -432.112 -5552.26 -432.112 -5478H-433C-433 -5552.56 -493.442 -5613 -568 -5613C-493.442 -5613 -433 -5673.44 -433 -5748H-432.112Z" fill="white"/>
<path d="M-432.112 -5478C-432.112 -5403.74 -372.15 -5343.48 -298 -5343.01V-5343C-372.15 -5342.52 -432.112 -5282.26 -432.112 -5208H-433C-433 -5282.56 -493.442 -5343 -568 -5343C-493.442 -5343 -433 -5403.44 -433 -5478H-432.112Z" fill="white"/>
<path d="M-432.112 -5208C-432.112 -5133.74 -372.15 -5073.48 -298 -5073.01V-5073C-372.15 -5072.52 -432.112 -5012.26 -432.112 -4938H-433C-433 -5012.56 -493.442 -5073 -568 -5073C-493.442 -5073 -433 -5133.44 -433 -5208H-432.112Z" fill="white"/>
<path d="M-162.112 -5748C-162.112 -5673.74 -102.15 -5613.48 -28 -5613.01V-5613C-102.15 -5612.52 -162.112 -5552.26 -162.112 -5478H-163C-163 -5552.56 -223.442 -5613 -298 -5613C-223.442 -5613 -163 -5673.44 -163 -5748H-162.112Z" fill="white"/>
<path d="M-162.112 -5478C-162.112 -5403.74 -102.15 -5343.48 -28 -5343.01V-5343C-102.15 -5342.52 -162.112 -5282.26 -162.112 -5208H-163C-163 -5282.56 -223.442 -5343 -298 -5343C-223.442 -5343 -163 -5403.44 -163 -5478H-162.112Z" fill="white"/>
<path d="M-162.112 -5208C-162.112 -5133.74 -102.15 -5073.48 -28 -5073.01V-5073C-102.15 -5072.52 -162.112 -5012.26 -162.112 -4938H-163C-163 -5012.56 -223.442 -5073 -298 -5073C-223.442 -5073 -163 -5133.44 -163 -5208H-162.112Z" fill="white"/>
</pattern></defs>
</svg>
