<svg width="185" height="5" viewBox="0 0 185 5" fill="none" xmlns="http://www.w3.org/2000/svg">
<path d="M173.3 2.13255C173.048 2.13633 172.793 2.13908 172.546 2.14453C172.385 2.14795 172.316 2.13886 172.209 2.13424C172.173 2.13263 172.135 2.12934 172.102 2.12982C171.852 2.1336 171.602 2.1378 171.352 2.142C171.276 2.15029 171.227 2.16125 171.11 2.16543C170.995 2.1694 170.86 2.16963 170.733 2.17174C170.564 2.17433 170.396 2.17692 170.228 2.17931C170.144 2.1805 170.075 2.18459 170.047 2.19217C170.042 2.19344 170.098 2.19648 170.128 2.19831C170.231 2.2044 170.33 2.21134 170.442 2.21596C170.55 2.22038 170.682 2.21262 170.797 2.21827C171.055 2.231 171.057 2.23079 171.254 2.22794C171.422 2.22535 171.59 2.22255 171.758 2.22058C171.792 2.2201 171.83 2.22317 171.866 2.22479C171.973 2.2292 172.042 2.23954 172.2 2.23529C172.32 2.23195 172.452 2.23109 172.577 2.2292C172.682 2.23508 172.779 2.24182 172.891 2.24643C172.996 2.25085 173.026 2.25436 172.97 2.26052C172.919 2.26626 172.848 2.26868 172.754 2.26927C172.67 2.26962 172.585 2.27165 172.501 2.27284C172.458 2.27354 172.417 2.27403 172.376 2.27473C172.216 2.27731 172.216 2.27731 171.922 2.26443C171.807 2.2594 171.677 2.26695 171.568 2.26212C171.494 2.2589 171.43 2.25399 171.358 2.25056C171.328 2.24915 171.279 2.24902 171.241 2.24951C171.114 2.25119 170.986 2.25246 170.864 2.25539C170.777 2.25743 170.726 2.26337 170.736 2.26921C170.739 2.27151 170.8 2.27475 170.836 2.2749C170.917 2.27518 171.004 2.27209 171.083 2.27342C171.16 2.27475 171.239 2.2788 171.295 2.2833C171.41 2.29273 171.54 2.28393 171.65 2.28625C171.764 2.28877 171.859 2.29697 171.969 2.3018C171.997 2.30301 172.05 2.30082 172.093 2.30012C172.218 2.29844 172.343 2.29696 172.468 2.29528C172.573 2.30117 172.685 2.30641 172.78 2.31315C172.951 2.32541 173.134 2.3299 173.356 2.32345C173.481 2.31988 173.604 2.32092 173.703 2.32891C173.805 2.3371 173.923 2.33606 174.053 2.33416C174.173 2.33228 174.295 2.32746 174.417 2.33311C174.683 2.34562 174.685 2.34624 174.999 2.34068C175.093 2.33905 175.165 2.33851 175.236 2.34319C175.303 2.34747 175.374 2.35111 175.443 2.35518C175.568 2.35349 175.695 2.35181 175.82 2.34992C175.981 2.34734 176.07 2.35011 176.109 2.36176C176.132 2.36883 176.142 2.3753 176.198 2.38001C176.265 2.38576 176.336 2.38542 176.433 2.38358C176.525 2.38196 176.591 2.37954 176.629 2.37194C176.644 2.36878 176.675 2.3658 176.703 2.36324C176.726 2.36132 176.762 2.35833 176.782 2.35871C176.82 2.35948 176.871 2.36169 176.884 2.36439C177.009 2.38948 177.009 2.38969 177.137 2.39679C177.277 2.40471 177.423 2.41177 177.55 2.42076C177.665 2.42872 177.78 2.42496 177.905 2.42475C177.999 2.42458 178.061 2.42991 178.053 2.43537C178.048 2.43851 178.012 2.44318 177.982 2.44365C177.732 2.44827 177.479 2.45226 177.227 2.45563C177.196 2.4561 177.158 2.4524 177.122 2.45058C177.051 2.44694 176.987 2.44119 176.91 2.44007C176.834 2.43895 176.745 2.44224 176.661 2.44343C176.576 2.44462 176.487 2.4475 176.411 2.44596C176.334 2.44442 176.273 2.43846 176.201 2.43461C176.168 2.43278 176.122 2.43014 176.094 2.43082C175.908 2.43616 175.77 2.4295 175.638 2.42052C175.609 2.41869 175.561 2.41752 175.525 2.418C175.23 2.42207 174.936 2.42676 174.641 2.43125C174.521 2.43313 174.424 2.42598 174.398 2.41368C174.385 2.4068 174.36 2.39994 174.359 2.39304C174.359 2.38049 174.219 2.37383 174.117 2.37547C173.949 2.37785 173.778 2.37982 173.612 2.38325C173.477 2.38599 173.362 2.38368 173.27 2.37631C173.163 2.36792 173.041 2.36981 172.918 2.37232C172.826 2.37415 172.801 2.3811 172.806 2.39846C172.812 2.41246 172.768 2.41693 172.602 2.41952C172.393 2.42281 172.182 2.42611 171.97 2.42878C171.937 2.42925 171.899 2.42576 171.865 2.42394C171.794 2.4203 171.73 2.41434 171.654 2.41322C171.577 2.41189 171.488 2.41518 171.404 2.41658C171.32 2.41777 171.23 2.42086 171.154 2.41952C171.077 2.41819 171.013 2.41203 170.945 2.40817C170.911 2.40635 170.871 2.4037 170.837 2.40418C170.669 2.40614 170.501 2.40894 170.333 2.41154C170.144 2.41438 170.144 2.41438 169.876 2.40187C169.753 2.39623 169.631 2.40104 169.511 2.40292C169.384 2.40482 169.264 2.40586 169.164 2.39767C169.098 2.39234 169.024 2.38913 168.945 2.39031C168.733 2.39319 168.524 2.39669 168.312 2.39957C168.277 2.40005 168.228 2.39909 168.2 2.39725C168.065 2.3887 167.932 2.38203 167.744 2.38675C167.58 2.3908 167.404 2.39131 167.241 2.39515C167.152 2.39719 167.111 2.40395 167.129 2.40915C167.139 2.41185 167.193 2.4149 167.229 2.41484C167.31 2.4149 167.4 2.41161 167.476 2.41273C167.634 2.41497 167.713 2.4324 167.92 2.42723C168.042 2.42409 168.17 2.42282 168.297 2.42177C168.331 2.4215 168.366 2.42541 168.402 2.42744C168.504 2.43291 168.593 2.44008 168.741 2.43606C168.864 2.43291 168.994 2.43185 169.119 2.42996C169.318 2.4269 169.318 2.42711 169.575 2.43942C169.698 2.44527 169.82 2.44025 169.94 2.43858C170.029 2.43738 170.113 2.43514 170.185 2.43794C170.295 2.44215 170.374 2.45205 170.509 2.45119C170.636 2.45034 170.761 2.44719 170.889 2.44592C170.968 2.44516 171.042 2.44838 171.106 2.45392C171.172 2.45945 171.244 2.46183 171.33 2.46043C171.455 2.45854 171.583 2.45623 171.71 2.45496C171.746 2.45469 171.787 2.4565 171.82 2.45811C171.891 2.46176 171.96 2.46603 172.029 2.46988C172.154 2.46841 172.282 2.46777 172.404 2.46505C172.499 2.463 172.565 2.46373 172.641 2.46778C172.738 2.47326 172.818 2.48316 172.976 2.47807C173.055 2.47564 173.146 2.4761 173.226 2.47387C173.322 2.47099 173.389 2.47192 173.458 2.47807C173.588 2.48977 173.751 2.4897 173.919 2.4848C174.103 2.47946 174.241 2.48508 174.379 2.49405C174.524 2.50342 174.524 2.50321 174.637 2.52623C174.67 2.53287 174.764 2.53584 174.843 2.53445C174.976 2.53213 175.091 2.53297 175.188 2.54075C175.29 2.54915 175.412 2.5479 175.537 2.54538C175.703 2.54195 175.869 2.53895 176.004 2.55084C176.07 2.55659 176.142 2.55792 176.231 2.5563C176.483 2.5521 176.738 2.54936 176.986 2.54433C177.136 2.54114 177.223 2.54768 177.325 2.55315C177.463 2.56065 177.613 2.56729 177.614 2.58382C177.614 2.58654 177.649 2.58961 177.68 2.59165C177.746 2.59593 177.818 2.59957 177.887 2.60364C177.989 2.60973 178.088 2.61479 178.229 2.6112C178.351 2.60827 178.481 2.60721 178.606 2.60511C178.731 2.60301 178.846 2.60176 178.958 2.60952C179.088 2.61828 179.226 2.62662 179.374 2.63306C179.479 2.63769 179.616 2.62929 179.729 2.63558C179.797 2.63944 179.864 2.64392 179.938 2.64714C179.968 2.64855 180.017 2.64742 180.058 2.64693C180.142 2.64595 180.229 2.64517 180.31 2.64294C180.404 2.64048 180.476 2.64077 180.547 2.64546C180.614 2.64974 180.68 2.65569 180.757 2.65681C180.871 2.65849 180.999 2.6499 181.114 2.65933C181.172 2.66404 181.246 2.66851 181.323 2.66984C181.4 2.67117 181.489 2.66788 181.57 2.66795C181.606 2.66788 181.649 2.67116 181.67 2.67384C181.683 2.67528 181.665 2.67929 181.647 2.68141C181.624 2.68396 181.591 2.68737 181.558 2.68784C181.305 2.69205 181.053 2.69562 180.801 2.69962C180.65 2.70197 180.65 2.70197 180.346 2.68932C180.275 2.6863 180.196 2.68707 180.107 2.68869C179.987 2.69078 179.864 2.69455 179.739 2.691C179.576 2.67706 179.375 2.67615 179.16 2.68196C179.071 2.68442 178.989 2.68456 178.923 2.6807C178.783 2.673 178.635 2.66593 178.51 2.65674C178.413 2.64958 178.367 2.64903 178.326 2.65915C178.313 2.66231 178.301 2.66567 178.303 2.6686C178.319 2.67903 178.347 2.68923 178.362 2.69967C178.367 2.70259 178.347 2.70597 178.334 2.70913C178.294 2.71799 178.24 2.71745 178.151 2.71028C178.061 2.70312 177.954 2.69849 177.811 2.70209C177.689 2.70523 177.556 2.70504 177.434 2.70839C177.245 2.71332 177.113 2.70686 176.977 2.6981C176.949 2.69626 176.901 2.6953 176.865 2.69578C176.485 2.70125 176.108 2.70735 175.728 2.71282C175.646 2.71401 175.572 2.711 175.508 2.70546C175.442 2.69993 175.368 2.69713 175.286 2.69831C174.95 2.70329 174.613 2.70785 174.277 2.71388C174.139 2.71642 174.029 2.71388 173.935 2.70673C173.863 2.70141 173.797 2.69986 173.708 2.70064C173.611 2.70143 173.542 2.70365 173.494 2.7098C173.448 2.71573 173.481 2.71923 173.583 2.72366C173.693 2.72849 173.795 2.7348 173.899 2.74047C173.984 2.73949 174.068 2.73767 174.149 2.73773C174.185 2.73767 174.218 2.74138 174.254 2.74341C174.356 2.7493 174.451 2.7552 174.596 2.7516C174.718 2.74846 174.848 2.74761 174.973 2.74551C175.147 2.74291 175.147 2.74291 175.427 2.7556C175.499 2.75882 175.575 2.75848 175.667 2.75644C175.746 2.75483 175.828 2.75762 175.884 2.7638C175.907 2.76627 175.899 2.77047 175.851 2.78436C175.851 2.79461 175.905 2.78991 175.922 2.78319C175.95 2.77352 175.897 2.77047 175.795 2.77588C175.724 2.77977 175.688 2.78527 175.706 2.78963C175.716 2.79192 175.765 2.79476 175.851 2.78436C176.075 2.77142 176.246 2.76966 176.409 2.76602C176.506 2.76397 176.568 2.7647 176.644 2.77001C176.736 2.77633 176.828 2.78308 176.978 2.77947C177.142 2.77542 177.315 2.7747 177.481 2.77128C177.634 2.76808 177.713 2.77715 177.81 2.78242C177.927 2.7887 178.057 2.78115 178.164 2.78473C178.277 2.7883 178.356 2.79737 178.486 2.79882C178.675 2.79284 178.795 2.80309 178.937 2.80975C179.05 2.81478 179.182 2.80995 179.302 2.80744C179.437 2.8047 179.55 2.8068 179.644 2.81417C179.751 2.82256 179.871 2.82047 179.993 2.81838C180.279 2.8137 180.289 2.81305 180.455 2.82427C180.575 2.83243 180.69 2.82846 180.81 2.82721C180.914 2.83267 181.016 2.83856 181.126 2.84339C181.154 2.8446 181.208 2.84242 181.251 2.84171C181.376 2.83982 181.504 2.83793 181.629 2.83604C181.713 2.83484 181.802 2.83155 181.878 2.83267C181.955 2.834 182.019 2.83996 182.088 2.84382C182.157 2.84767 182.228 2.85152 182.294 2.85559C182.397 2.86169 182.493 2.86675 182.636 2.86336C182.759 2.86043 182.886 2.85937 183.014 2.85727C183.174 2.85469 183.169 2.85533 183.468 2.86736C183.629 2.87398 183.794 2.86533 183.957 2.86421C184.039 2.86365 184.118 2.86581 184.174 2.87178C184.197 2.87425 184.19 2.87845 184.197 2.88199C183.777 2.88837 183.353 2.89392 182.938 2.90154C182.777 2.90454 182.693 2.89715 182.606 2.89103C182.463 2.88124 182.275 2.89621 182.139 2.88347C182.057 2.87587 181.94 2.87169 181.8 2.8757C181.718 2.87793 181.632 2.87787 181.547 2.8799C181.333 2.88487 181.137 2.88542 180.966 2.87129C180.907 2.86637 180.823 2.86379 180.762 2.85909C180.69 2.85398 180.621 2.85117 180.537 2.85236C180.157 2.85805 179.78 2.86372 179.402 2.86982C179.369 2.87029 179.336 2.87349 179.308 2.87584C179.237 2.88182 179.26 2.88638 179.375 2.88995C179.413 2.89114 179.444 2.8938 179.479 2.89583C179.548 2.89969 179.612 2.90585 179.688 2.90718C179.765 2.90852 179.854 2.90543 179.938 2.90424C180.023 2.90305 180.112 2.89975 180.188 2.90088C180.265 2.90221 180.329 2.90816 180.4 2.91181C180.433 2.91363 180.474 2.9167 180.507 2.91643C180.676 2.91488 180.841 2.91229 181.01 2.91012C181.114 2.91559 181.204 2.92359 181.329 2.92525C181.408 2.92637 181.492 2.92392 181.573 2.9242C181.609 2.92435 181.655 2.92741 181.673 2.9301C181.683 2.93175 181.65 2.93599 181.625 2.93813C181.528 2.94625 181.395 2.94501 181.275 2.94773C181.145 2.95067 181.028 2.95004 180.928 2.94206C180.862 2.93673 180.788 2.93393 180.706 2.93512C180.495 2.93821 180.286 2.94171 180.074 2.94438C180.038 2.94486 179.995 2.94305 179.962 2.94165C179.694 2.92935 179.694 2.92893 179.505 2.93198C179.227 2.93644 179.227 2.93643 179.041 2.92567C179.005 2.92364 178.967 2.91973 178.936 2.92C178.64 2.92386 178.347 2.92771 178.054 2.93303C177.957 2.93467 177.891 2.93478 177.819 2.92947C177.758 2.92497 177.687 2.91987 177.61 2.91874C177.531 2.91762 177.444 2.92091 177.36 2.92211C177.276 2.9233 177.187 2.92617 177.113 2.92463C177.036 2.92309 176.97 2.91735 176.903 2.91328C176.835 2.909 176.761 2.90934 176.666 2.91118C176.376 2.91649 176.373 2.91587 176.085 2.9034C176.051 2.90199 176.008 2.9004 175.972 2.90088C175.761 2.90375 175.552 2.90726 175.34 2.91013C175.258 2.91132 175.179 2.90874 175.123 2.90277C175.1 2.9003 175.108 2.8961 175.092 2.88797C175.075 2.88612 175.095 2.88943 175.1 2.89256C175.138 2.89208 175.184 2.89241 175.212 2.89069C175.284 2.88659 175.319 2.8813 175.301 2.87694C175.291 2.87465 175.243 2.87181 175.212 2.87186C175.156 2.87196 175.108 2.87665 175.092 2.88797C174.932 2.89515 174.761 2.89691 174.595 2.90055C174.498 2.90281 174.437 2.90187 174.36 2.89656C174.269 2.89003 174.174 2.88371 174.024 2.88732C173.861 2.89136 173.687 2.8923 173.519 2.89552C173.325 2.8992 173.241 2.88052 173.077 2.88122C172.909 2.88193 172.741 2.88578 172.573 2.88858C172.425 2.89093 172.425 2.89093 172.118 2.87786C172.006 2.87304 171.874 2.88059 171.764 2.87555C171.69 2.87233 171.626 2.86742 171.555 2.86399C171.524 2.86258 171.476 2.86266 171.437 2.86315C171.226 2.86603 171.011 2.86807 170.807 2.87303C170.575 2.87887 170.399 2.87332 170.233 2.86127C170.024 2.86393 169.813 2.86555 169.606 2.86989C169.456 2.87308 169.369 2.86632 169.267 2.86085C169.231 2.85903 169.2 2.85595 169.162 2.85518C169.124 2.85441 169.078 2.85616 169.037 2.85686C168.869 2.85945 168.695 2.8608 168.532 2.86485C168.331 2.87001 168.254 2.85299 168.099 2.85117C167.994 2.8616 167.938 2.87571 167.732 2.87711C167.563 2.87824 167.395 2.88188 167.227 2.88448C167.143 2.88567 167.058 2.88707 166.974 2.88826C166.839 2.89038 166.776 2.89865 166.804 2.91115C166.819 2.91803 166.832 2.92491 166.845 2.93179C166.87 2.94409 166.807 2.95466 166.7 2.95631C166.404 2.9608 166.111 2.96549 165.815 2.96956C165.736 2.97074 165.659 2.96732 165.595 2.96178C165.529 2.95625 165.455 2.95387 165.373 2.95506C165.078 2.95954 164.784 2.96424 164.489 2.96831C164.455 2.96878 164.412 2.96677 164.379 2.96515C164.307 2.96151 164.239 2.95724 164.17 2.95338C164.001 2.95556 163.836 2.9571 163.67 2.9599C163.402 2.96413 163.402 2.96434 163.206 2.95317C163.17 2.95114 163.134 2.94723 163.101 2.9475C162.973 2.94856 162.848 2.95086 162.721 2.95297C162.346 2.95906 162.346 2.95906 162.236 2.95297C162.137 2.94729 162.047 2.94033 161.897 2.94394C161.734 2.94799 161.56 2.94954 161.392 2.95193C161.267 2.95361 161.142 2.9555 161.017 2.95614C160.984 2.9564 160.948 2.95249 160.913 2.95046C160.811 2.94415 160.711 2.9391 160.571 2.9429C160.489 2.94513 160.402 2.9457 160.318 2.94689C160.099 2.9502 160.099 2.9502 159.739 2.93827C159.704 2.93708 159.66 2.93569 159.624 2.93638C159.329 2.94066 159.035 2.94535 158.74 2.94942C158.704 2.9499 158.661 2.94872 158.625 2.94774C158.222 2.9363 158.222 2.93631 157.793 2.94291C157.63 2.94528 157.625 2.94613 157.454 2.93534C157.377 2.93066 157.314 2.92847 157.224 2.93009C156.888 2.93569 156.549 2.93963 156.215 2.94607C156.064 2.94884 155.977 2.94271 155.875 2.93724C155.84 2.93542 155.801 2.93131 155.771 2.93157C155.434 2.93613 155.097 2.94152 154.761 2.94608C154.73 2.94655 154.692 2.94244 154.656 2.94062C154.587 2.93697 154.521 2.93144 154.444 2.93032C154.365 2.9292 154.279 2.93249 154.192 2.93368C153.98 2.93677 153.98 2.93656 153.735 2.92464C153.702 2.92303 153.659 2.9208 153.626 2.92128C153.289 2.92605 152.95 2.93019 152.616 2.93684C152.425 2.94052 152.294 2.93468 152.159 2.92612C152.131 2.92429 152.083 2.92354 152.047 2.92402C151.667 2.92949 151.29 2.93558 150.91 2.94106C150.831 2.94224 150.754 2.93882 150.69 2.93349C150.588 2.92509 150.468 2.92634 150.341 2.92845C150.048 2.93335 150.045 2.93314 149.871 2.9234C149.836 2.92138 149.805 2.91871 149.767 2.91773C149.731 2.91674 149.685 2.91745 149.647 2.91794C149.479 2.92032 149.31 2.92291 149.142 2.92551C148.974 2.9281 148.803 2.92965 148.637 2.9335C148.433 2.93825 148.336 2.92481 148.193 2.91879C147.984 2.92187 147.77 2.92392 147.563 2.92867C147.405 2.93229 147.331 2.92321 147.227 2.91858C147.191 2.91697 147.152 2.91348 147.119 2.91396C146.739 2.91922 146.359 2.9249 145.982 2.9312C145.89 2.93262 145.829 2.93105 145.752 2.92616C145.581 2.91516 145.574 2.9156 145.288 2.92028C145.163 2.92238 145.043 2.92426 144.936 2.91587C144.842 2.90829 144.727 2.90661 144.592 2.90935C144.426 2.91278 144.255 2.91475 144.087 2.91713C143.919 2.91973 143.75 2.92316 143.582 2.92449C143.447 2.92577 143.365 2.91609 143.258 2.91125C143.225 2.90985 143.179 2.90971 143.141 2.9102C142.972 2.91237 142.799 2.91414 142.636 2.91798C142.437 2.92272 142.327 2.9114 142.187 2.90495C142.156 2.90354 142.105 2.90447 142.067 2.90516C141.771 2.90944 141.478 2.91413 141.182 2.91862C141.077 2.91315 140.97 2.9079 140.865 2.90244C140.697 2.90482 140.529 2.90741 140.361 2.9098C140.233 2.91169 140.103 2.91255 139.983 2.91589C139.828 2.92035 139.751 2.91065 139.646 2.90602C139.611 2.90441 139.572 2.90092 139.539 2.90139C139.328 2.90406 139.116 2.90694 138.907 2.91086C138.708 2.91476 138.629 2.89607 138.465 2.89656C138.297 2.89706 138.124 2.90008 137.961 2.90413C137.772 2.90885 137.639 2.90239 137.504 2.89363C137.476 2.8918 137.427 2.89083 137.392 2.89131C137.18 2.89419 136.971 2.89769 136.759 2.90057C136.724 2.90105 136.68 2.90008 136.645 2.89889C136.241 2.88725 136.241 2.88704 136.065 2.88985C135.94 2.89174 135.813 2.89406 135.685 2.89532C135.65 2.8958 135.606 2.894 135.573 2.89238C135.308 2.88008 135.308 2.87987 135.117 2.88271C134.948 2.88531 134.78 2.8879 134.612 2.89049C134.507 2.88503 134.4 2.87978 134.295 2.87431C134.086 2.87739 133.872 2.87985 133.665 2.88398C133.568 2.88582 133.505 2.8853 133.431 2.8802C133.339 2.87409 133.247 2.86693 133.094 2.87075C132.931 2.8748 132.757 2.87552 132.592 2.87894C132.393 2.88305 132.311 2.86416 132.15 2.86465C131.982 2.86515 131.808 2.86817 131.645 2.87222C131.457 2.87694 131.324 2.87047 131.189 2.86171C131.161 2.85988 131.112 2.85892 131.076 2.8594C130.612 2.86627 130.151 2.87314 129.687 2.88043C129.401 2.8849 129.401 2.88511 128.858 2.87455C128.819 2.87378 128.779 2.87301 128.74 2.8735C128.572 2.87567 128.399 2.87744 128.235 2.88128C128.037 2.88601 127.927 2.87491 127.786 2.86825C127.756 2.86684 127.707 2.86776 127.667 2.86825C127.539 2.86993 127.414 2.87204 127.287 2.87393C127.118 2.87652 126.95 2.87912 126.782 2.88171C126.677 2.87645 126.57 2.87099 126.465 2.86573C126.256 2.86881 126.042 2.87065 125.835 2.8754C125.677 2.87903 125.603 2.87037 125.499 2.86553C125.463 2.86392 125.425 2.86043 125.391 2.86069C125.011 2.86596 124.632 2.87143 124.254 2.87794C124.099 2.88072 124.027 2.87143 123.922 2.8668C123.887 2.8654 123.846 2.86275 123.813 2.86323C123.56 2.86659 123.308 2.87059 123.055 2.87458C122.913 2.87692 122.913 2.87692 122.601 2.86449C122.566 2.86309 122.525 2.8617 122.489 2.86218C121.688 2.87403 120.89 2.8865 120.09 2.89835C120.008 2.89954 119.934 2.89653 119.87 2.89099C119.804 2.88546 119.73 2.88266 119.648 2.88385C119.312 2.88883 118.972 2.89339 118.638 2.89941C118.501 2.90195 118.391 2.89942 118.296 2.89226C118.225 2.88695 118.159 2.88497 118.069 2.88638C117.901 2.88918 117.733 2.89157 117.565 2.89416C117.396 2.89675 117.228 2.89935 117.06 2.90194C116.891 2.90453 116.72 2.90609 116.555 2.90993C116.351 2.91468 116.251 2.90188 116.111 2.89564C115.858 2.89922 115.606 2.90279 115.356 2.90657C115.019 2.91155 114.683 2.91695 114.346 2.92172C114.316 2.92219 114.277 2.91849 114.242 2.91667C114.137 2.91162 114.06 2.90443 113.905 2.907C113.15 2.9194 112.39 2.93013 111.633 2.94233C111.475 2.9449 111.406 2.93603 111.299 2.9314C111.263 2.93 111.222 2.92714 111.189 2.92762C110.768 2.93358 110.347 2.94016 109.927 2.94654C109.756 2.94914 109.756 2.94914 109.47 2.93667C109.437 2.93526 109.393 2.93345 109.358 2.93393C108.809 2.942 108.264 2.95048 107.715 2.95875C107.634 2.95994 107.56 2.95714 107.494 2.95161C107.43 2.94607 107.353 2.94306 107.274 2.94425C106.769 2.95182 106.262 2.95918 105.759 2.96738C105.624 2.96971 105.512 2.96802 105.415 2.96066C105.346 2.95534 105.277 2.95315 105.19 2.95456C104.433 2.96612 103.676 2.97727 102.918 2.98947C102.773 2.99181 102.671 2.98801 102.579 2.98127C102.505 2.97596 102.441 2.97502 102.35 2.97602C102.253 2.97723 102.194 2.97964 102.141 2.986C102.072 2.99428 102.029 3.00461 101.865 3.00552C101.697 3.00644 101.526 3.00925 101.36 3.01309C101.202 3.01692 101.128 3.00764 101.029 3.00216C100.955 2.99832 100.886 2.99781 100.792 2.99985C100.705 3.00168 100.651 3.00533 100.6 3.01211C100.488 3.02653 100.478 3.02655 100.34 3.01779C100.266 3.01311 100.2 3.00946 100.118 3.01044C99.7817 3.0152 99.4451 3.02039 99.1085 3.02579C98.9147 3.02884 98.9122 3.02927 98.7667 3.01906C98.6952 3.01395 98.6263 3.01156 98.5422 3.01296C97.6165 3.02712 96.6909 3.04087 95.7653 3.05565C95.6225 3.05799 95.5255 3.05377 95.4234 3.04767C95.3902 3.04563 95.357 3.04276 95.3188 3.04199C95.2805 3.04122 95.2372 3.04213 95.1964 3.04262C94.5232 3.05279 93.8474 3.06254 93.1767 3.07375C93.0237 3.07631 92.9421 3.06976 92.8375 3.0645C92.8017 3.06268 92.7711 3.05981 92.7328 3.05904C92.6945 3.05848 92.6486 3.06002 92.6078 3.06072C91.9346 3.07088 91.2589 3.08063 90.5883 3.09184C90.4276 3.09442 90.3587 3.08575 90.254 3.08133C90.2183 3.07972 90.18 3.07665 90.1469 3.07712C89.9352 3.07979 89.7261 3.08329 89.5145 3.08638C89.0096 3.09416 88.5046 3.10152 87.9998 3.10951C87.806 3.11257 87.7216 3.0941 87.5584 3.09522C87.3467 3.09663 87.1376 3.10118 86.926 3.10447C86.7577 3.10707 86.5894 3.10945 86.4211 3.11226C86.2553 3.11484 86.2553 3.11484 85.842 3.10343C85.8063 3.10244 85.7629 3.10105 85.7272 3.10153C85.1382 3.1103 84.5466 3.11907 83.9601 3.12845C83.825 3.13057 83.7127 3.12972 83.6157 3.12215C83.5468 3.11683 83.4754 3.11423 83.3912 3.11563C82.5064 3.12909 81.624 3.14255 80.7392 3.1558C80.7061 3.15628 80.6627 3.15426 80.6295 3.15265C80.558 3.149 80.4891 3.14473 80.4202 3.14088C80.3693 3.14578 80.303 3.15028 80.27 3.15578C80.2241 3.16318 80.1629 3.16538 80.066 3.1668C79.9691 3.16823 79.9079 3.16791 79.8314 3.16261C79.7395 3.15607 79.645 3.15101 79.4946 3.15336C78.5689 3.16815 77.6433 3.18168 76.7176 3.19626C76.5646 3.19861 76.4932 3.18953 76.386 3.18491C76.3503 3.18351 76.3094 3.18128 76.2762 3.18175C75.8963 3.18722 75.5189 3.19311 75.1389 3.19879C74.0858 3.21484 73.0327 3.23027 71.9821 3.24716C71.7909 3.25021 71.6607 3.2452 71.5254 3.23644C71.4974 3.23461 71.4489 3.23365 71.4132 3.23413C69.9393 3.25635 68.4654 3.27878 66.9941 3.30121C66.915 3.3024 66.8384 3.29918 66.7746 3.29385C66.7082 3.28832 66.6343 3.28573 66.5527 3.28692C65.8795 3.29708 65.2063 3.30725 64.5331 3.31762C64.3648 3.32022 64.3622 3.32043 64.1887 3.31069C64.153 3.30866 64.1147 3.30475 64.0866 3.30522C64.028 3.30637 63.9719 3.31169 63.9312 3.31887C63.8905 3.32648 63.8267 3.32868 63.7324 3.33031C63.6355 3.33194 63.5718 3.33142 63.4977 3.32653C63.4033 3.32042 63.3165 3.3145 63.1635 3.31686C61.2281 3.347 59.2926 3.37609 57.3572 3.40602C57.2016 3.40838 57.1301 3.39972 57.0229 3.3951C56.9872 3.39369 56.9515 3.39166 56.9132 3.39131C56.8724 3.39096 56.8291 3.39229 56.7883 3.39299C53.6314 3.44094 50.4746 3.4891 47.3177 3.53705C47.129 3.53988 47.1316 3.53988 46.9252 3.55949C46.8997 3.56183 46.8666 3.56502 46.8309 3.5655C45.8644 3.58057 44.8955 3.59522 43.9265 3.60988C43.5057 3.61626 43.085 3.62285 42.6643 3.62901C42.5138 3.63116 42.5138 3.63116 42.1545 3.65438C42.1239 3.65631 42.0882 3.65888 42.0525 3.65936C40.3695 3.68509 38.6865 3.71081 37.001 3.73613C36.8684 3.73803 36.7613 3.74198 36.7002 3.75213C36.657 3.75932 36.6009 3.7636 36.5168 3.765C35.3387 3.78294 34.1606 3.8011 32.98 3.81863C32.8397 3.82075 32.7556 3.82676 32.6868 3.83566C32.6639 3.83863 32.6435 3.84201 32.6104 3.84416C32.5798 3.8461 32.5339 3.8468 32.4957 3.8475C31.4859 3.86285 30.4761 3.87862 29.4638 3.89335C29.3133 3.89549 29.2522 3.90334 29.1783 3.91163C29.1529 3.91439 29.1351 3.91819 29.1019 3.92013C29.0688 3.92186 29.0203 3.92194 28.9795 3.92243C28.138 3.93519 27.2966 3.94816 26.4551 3.96091C26.2918 3.96015 26.2563 3.97235 26.1773 3.9798C26.1493 3.98236 26.1289 3.98575 26.0958 3.98748C26.0601 3.98921 26.0142 3.98908 25.9708 3.98958C25.2976 3.99974 24.6244 4.01053 23.9487 4.02007C23.7931 4.02223 23.7626 4.03295 23.6786 4.04042C23.6505 4.04277 23.6226 4.04637 23.5894 4.04706C23.1687 4.05385 22.748 4.06023 22.3272 4.0664C22.187 4.06853 22.1869 4.06832 21.9398 4.08946C21.9118 4.09181 21.8786 4.09438 21.8429 4.09507C21.2131 4.10495 20.5807 4.11441 19.9483 4.12409C19.8667 4.12528 19.8107 4.13039 19.77 4.13758C19.7292 4.14476 19.6706 4.14946 19.589 4.15065C19.0842 4.15843 18.5792 4.16642 18.0743 4.17357C17.9341 4.17549 17.8423 4.18088 17.7812 4.1904C17.7354 4.19759 17.6794 4.20124 17.5901 4.20265C17.0852 4.21023 16.5803 4.21843 16.0729 4.22516C15.925 4.22709 15.8485 4.23434 15.7874 4.24323C15.739 4.25043 15.683 4.25304 15.5886 4.25445C14.663 4.2682 13.7348 4.28194 12.8117 4.29693C12.6562 4.2995 12.577 4.29232 12.4749 4.28727C12.3295 4.2802 12.1942 4.27248 12.194 4.25616C12.194 4.25365 12.1506 4.2508 12.12 4.24876C11.8928 4.23347 11.8928 4.23347 11.8569 4.2168C11.8363 4.20658 11.8133 4.19616 11.7953 4.18573C11.7619 4.16864 11.6802 4.16439 11.4456 4.16793C11.3615 4.16912 11.2773 4.17073 11.1932 4.17172C11.0682 4.1734 10.9738 4.16666 10.9507 4.15415C10.9379 4.14727 10.9225 4.14039 10.9097 4.13351C11.0372 4.13161 11.0346 4.13141 11.2587 4.10571C11.3529 4.09488 11.353 4.09488 11.1718 4.08452C11.1029 4.08067 11.0365 4.07639 10.9625 4.07275C10.9293 4.07113 10.8859 4.07016 10.8502 4.07064C10.6386 4.07352 10.4295 4.07681 10.2204 4.08011C9.8838 4.08529 9.88376 4.08529 9.54175 4.06455C9.51367 4.06292 9.47028 4.05986 9.47536 4.05818C9.50332 4.05039 9.57213 4.04692 9.65883 4.04594C9.78634 4.04446 9.91128 4.04215 10.0362 4.04026C10.1204 4.03907 10.2045 4.03767 10.2887 4.03648C10.3676 4.02839 10.4492 4.02051 10.5231 4.01222C10.6402 3.99947 10.6402 3.99905 10.4794 3.99054C10.3773 3.98486 10.2676 3.97982 10.1629 3.97456C10.038 3.97645 9.91051 3.97856 9.78556 3.98024C9.62745 3.9824 9.56364 3.97853 9.52267 3.96501C9.48682 3.95314 9.53005 3.94282 9.65244 3.9401C9.77738 3.93737 9.89472 3.93549 9.95835 3.92471C10.0194 3.91436 10.1265 3.91019 10.2591 3.90913C10.3433 3.90835 10.4274 3.90675 10.5115 3.90534C10.6212 3.90348 10.6797 3.89271 10.6566 3.88082C10.6438 3.87311 10.6182 3.86667 10.5187 3.86517C10.0774 3.85861 10.0723 3.85883 9.85278 3.84498C9.83236 3.84376 9.81704 3.84003 9.82467 3.83813C9.83739 3.83497 9.86539 3.83032 9.89599 3.82964C10.1892 3.82453 10.4825 3.81983 10.7757 3.81619C10.8726 3.81497 10.944 3.81338 10.9771 3.80559C11.0229 3.79484 11.0023 3.78504 10.913 3.77787C10.8849 3.77562 10.8389 3.77277 10.8083 3.77304C10.4717 3.77739 10.1377 3.78278 9.80107 3.78713C9.77048 3.7876 9.71435 3.78414 9.70157 3.78144C9.676 3.77647 9.71415 3.76971 9.80339 3.76725C9.92067 3.76391 10.0405 3.76349 10.1195 3.75289C10.229 3.73785 10.3639 3.72402 10.4862 3.70958C10.5066 3.70704 10.5397 3.70217 10.532 3.70176C10.4682 3.69727 10.3942 3.69384 10.3278 3.68957C10.2155 3.68244 10.2154 3.67219 10.2408 3.66231C10.2611 3.65433 10.3376 3.65106 10.4319 3.65089C10.4727 3.65082 10.5237 3.65074 10.5569 3.64879C10.6435 3.64404 10.6715 3.63813 10.6281 3.63382C10.6026 3.63135 10.5566 3.62788 10.526 3.62835C9.98034 3.6362 9.43205 3.64384 8.88892 3.65336C8.72827 3.65615 8.65427 3.64833 8.55728 3.64285C8.48327 3.63859 8.41434 3.63703 8.32257 3.64033C8.23589 3.64341 8.15174 3.64188 8.09809 3.63507C8.05467 3.6295 8.13111 3.62456 8.33762 3.61876C8.37587 3.61765 8.4192 3.61694 8.44723 3.6148C8.7428 3.5917 8.74279 3.59149 8.94678 3.5882C9.14568 3.58514 9.14572 3.58493 9.25014 3.57262C9.29853 3.56688 9.35198 3.56114 9.39781 3.55521C9.41564 3.55287 9.44623 3.54864 9.43601 3.5474C9.37983 3.54101 9.30327 3.53968 9.21402 3.5413C9.01513 3.5452 8.7805 3.54268 8.67617 3.56274C8.63546 3.57034 8.57172 3.57254 8.47992 3.57395C7.55682 3.58769 6.63371 3.60226 5.70806 3.61559C5.55761 3.61773 5.48888 3.62559 5.43033 3.63427C5.3794 3.64147 5.32331 3.64366 5.22641 3.64508C5.12951 3.64651 5.05297 3.64727 4.99677 3.64046C4.96357 3.63633 4.99156 3.63043 5.068 3.62444C5.17757 3.61588 5.15702 3.60546 5.1212 3.59569C5.09562 3.58925 5.0165 3.58478 4.93234 3.58535C4.80738 3.5864 4.68758 3.58891 4.58291 3.58072C4.52164 3.57602 4.44507 3.5728 4.37616 3.56874C4.24344 3.56039 4.1107 3.55184 3.92459 3.55781C3.79705 3.55594 3.70769 3.54856 3.60561 3.54288C3.43461 3.53356 3.41929 3.53212 3.54159 3.52166C3.67917 3.50991 3.57185 3.49503 3.64822 3.4836C3.72969 3.47133 3.84181 3.46047 3.94114 3.449C3.96661 3.44603 3.98954 3.44327 4.01501 3.44029C3.9563 3.43621 3.90268 3.43108 3.83379 3.42827C3.74448 3.42466 3.69851 3.42013 3.70346 3.40716C3.68558 3.4053 3.69324 3.4101 3.71366 3.41132C3.73662 3.41254 3.79276 3.41139 3.8208 3.40988C3.89216 3.40578 3.92777 3.40049 3.90986 3.39613C3.89963 3.39384 3.85117 3.391 3.82057 3.39105C3.76446 3.39115 3.71607 3.39584 3.7009 3.40716C3.41536 3.41623 3.11952 3.42093 2.82372 3.42479C2.79312 3.42526 2.75483 3.42115 2.7191 3.41912C2.6017 3.41221 2.60168 3.41241 2.25735 3.41092C2.22165 3.41077 2.17318 3.40793 2.15529 3.40503C2.08117 3.3924 2.08357 3.37838 2.0477 3.36484C2.1139 3.35594 2.18006 3.34725 2.24881 3.33856C2.38632 3.32095 2.56471 3.30537 2.67159 3.28615C2.64851 3.27594 2.61778 3.26574 2.72989 3.25718C3.04857 3.24617 3.04604 3.24617 3.13263 3.23598C3.37967 3.2071 3.62414 3.17802 3.88139 3.14954C3.95016 3.1421 3.95012 3.13812 3.82767 3.1352C3.7894 3.13443 3.74854 3.13429 3.70774 3.13478C3.58023 3.13646 3.45276 3.14045 3.32778 3.13983C3.20281 3.13942 3.11088 3.13038 3.0088 3.1249C2.90416 3.11923 2.79952 3.11334 2.69488 3.10746C2.57502 3.1083 2.45525 3.11436 2.33526 3.10516C2.24336 3.09799 2.12854 3.09296 2.0239 3.08708C2.10277 3.07104 2.25056 3.05865 2.36516 3.04444C2.46957 3.03149 2.47207 3.0317 2.75249 3.02138C2.88505 3.01655 2.93068 2.99283 2.81837 2.98612C2.6831 2.97799 2.54022 2.9705 2.4024 2.96279C2.28254 2.96362 2.16021 2.96949 2.04533 2.96027C1.95598 2.95331 1.85388 2.94868 1.70599 2.95165C1.45611 2.95669 1.20111 2.95943 0.948665 2.96364C0.861967 2.96504 0.767565 2.96437 0.729222 2.95733C0.703657 2.95235 0.777539 2.94532 0.861685 2.94371C0.989179 2.94139 1.1039 2.93869 1.16754 2.92812C1.22862 2.91755 1.34078 2.91422 1.47339 2.91252C1.50909 2.91204 1.54989 2.90946 1.56772 2.90692C1.65938 2.89463 1.76128 2.88399 1.95766 2.88407C2.03923 2.87974 2.08249 2.87444 2.05693 2.86946C2.04159 2.86677 1.98802 2.86331 1.95742 2.86378C1.74576 2.86624 1.53411 2.8687 1.32757 2.87282C1.23068 2.87466 1.15668 2.87521 1.0954 2.86904C1.05199 2.86493 1.07487 2.85924 1.15641 2.85303C1.22776 2.84768 1.24811 2.84158 1.24292 2.83447C1.22997 2.81797 1.15338 2.81329 0.908558 2.81476C0.732591 2.81591 0.689199 2.81326 0.65077 2.7991C0.640528 2.79577 0.615013 2.79122 0.632837 2.78888C0.742331 2.77447 0.813533 2.75677 1.02003 2.74972C1.10162 2.74707 1.18829 2.74692 1.23924 2.74139C1.29018 2.73586 1.33603 2.72951 1.38953 2.72418C1.45576 2.71779 1.50155 2.71186 1.4709 2.70794C1.4198 2.70091 1.33821 2.70043 1.24388 2.7031C1.16229 2.70533 1.07558 2.70569 0.991433 2.70709C0.840987 2.70966 0.718529 2.70443 0.700565 2.69526C0.651812 2.67108 0.600496 2.64711 0.556844 2.62292C0.551708 2.62 0.564379 2.61621 0.584751 2.61366C0.656055 2.60475 0.732495 2.59625 0.806352 2.58755C0.892946 2.57757 1.03071 2.57921 1.14801 2.57712C1.31375 2.57412 1.3137 2.57432 1.53534 2.55386C1.62195 2.54576 1.77247 2.54863 1.86165 2.54137C1.88967 2.53902 1.93299 2.53518 1.92531 2.5331C1.91507 2.5304 1.86407 2.52839 1.8258 2.5272C1.79008 2.52601 1.74672 2.52546 1.70847 2.52615C1.24438 2.53303 0.782846 2.54031 0.318745 2.54698C0.239696 2.54816 0.152924 2.54371 0.12479 2.53727C0.0966623 2.53125 0.104199 2.52392 0.0990146 2.51702C0.172872 2.50832 0.256906 2.50022 0.320553 2.49091C0.368924 2.48371 0.425005 2.48048 0.521915 2.47989C0.649427 2.47904 0.774378 2.47631 0.917177 2.47418C1.18205 2.44318 1.44178 2.41072 1.72705 2.37969C1.84167 2.36714 1.81351 2.35464 1.8363 2.34142C1.85911 2.32925 2.03 2.33084 2.14472 2.32708C2.2365 2.32399 2.26698 2.31725 2.23122 2.3127C2.21078 2.31002 2.16486 2.30696 2.12916 2.30702C2.045 2.30717 1.96086 2.3092 1.87671 2.31039C1.79256 2.31158 1.69564 2.31113 1.62682 2.3148C1.56055 2.31826 1.51726 2.32545 1.47397 2.33159C1.4256 2.33837 1.36191 2.34078 1.265 2.34137C1.14004 2.34201 1.0151 2.3441 0.890147 2.34578C0.752326 2.33787 0.609378 2.33017 0.476653 2.32182C0.451128 2.32019 0.445942 2.31539 0.448454 2.31225C0.453455 2.30408 0.415148 2.29912 0.330937 2.2953C0.259485 2.29207 0.200762 2.28736 0.134401 2.28329C0.18534 2.27756 0.241403 2.27202 0.282135 2.26588C0.371244 2.25297 0.483361 2.24357 0.677197 2.24365C0.753609 2.23536 0.814679 2.22521 0.914075 2.21939C1.00837 2.21379 1.16912 2.21895 1.24038 2.20648C1.27601 2.20035 1.32952 2.19336 1.39835 2.19073C1.50797 2.18656 1.65081 2.18841 1.71443 2.17658C1.7526 2.16982 1.80862 2.16366 1.88256 2.16186C1.9667 2.15983 2.05338 2.15926 2.11455 2.15518C2.14767 2.15303 2.18334 2.14962 2.18331 2.14669C2.18329 2.14481 2.13228 2.14197 2.09656 2.14077C2.06339 2.13937 2.01997 2.1384 1.98172 2.13888C1.85421 2.14036 1.72928 2.14288 1.60177 2.14435C1.56607 2.14483 1.52526 2.14344 1.48699 2.14225C1.37473 2.1391 1.38231 2.1349 1.47149 2.12722C1.56066 2.11974 1.62434 2.11021 1.6982 2.10151C1.77979 2.0999 1.8818 2.10035 1.93786 2.09628C2.03215 2.08963 2.09833 2.0801 2.17474 2.07181C2.25889 2.07041 2.34559 2.06984 2.42462 2.06741C2.45777 2.06651 2.47303 2.06188 2.50105 2.05911C2.55199 2.0538 2.59529 2.04619 2.66412 2.04356C2.77629 2.0396 2.91403 2.04082 2.9802 2.0292C3.01838 2.02244 3.07693 2.01523 3.14833 2.01469C3.34725 2.01351 3.43128 2.00185 3.53316 1.9908C3.60957 1.98251 3.77286 1.98641 3.85692 1.9781C3.91296 1.97278 3.95372 1.96622 4.00976 1.9611C4.03269 1.95897 4.08112 1.95784 4.11937 1.95715C4.32846 1.95365 4.54011 1.95098 4.7492 1.94727C4.78235 1.94658 4.81294 1.94339 4.83841 1.94084C4.8919 1.9353 4.92493 1.92772 4.9912 1.92404C5.05746 1.92037 5.15182 1.92021 5.23342 1.91902C5.49607 1.91543 5.5165 1.91623 5.63615 1.89824C5.73289 1.88364 5.97024 1.89347 6.0491 1.87744C6.0949 1.86815 6.17893 1.86048 6.32939 1.85917C6.54106 1.85734 6.75014 1.853 6.96179 1.84991C7.15049 1.84708 7.14794 1.84708 7.35174 1.82727C7.44344 1.81833 7.57866 1.81935 7.69851 1.81747C7.82601 1.81557 7.94328 1.81286 8.00436 1.80229C8.06545 1.79194 8.17761 1.78839 8.30766 1.7867C8.42751 1.78503 8.56273 1.78584 8.65699 1.77731C8.88628 1.75683 8.88373 1.75662 9.04438 1.75425C9.29683 1.75047 9.54927 1.74668 9.80172 1.74269C9.97001 1.74009 10.146 1.73937 10.304 1.73449C10.4188 1.73095 10.4696 1.71914 10.5435 1.71086C10.7526 1.70736 10.9617 1.70385 11.1708 1.70056C11.464 1.69587 11.7598 1.69159 12.0556 1.6871C12.183 1.67893 12.2007 1.66133 12.4149 1.66012C12.5424 1.65948 12.6674 1.65654 12.7949 1.65465C13.0065 1.65135 13.2156 1.64722 13.4273 1.64539C13.5879 1.64407 13.6158 1.63272 13.6999 1.62546C13.7279 1.6229 13.7534 1.6193 13.7865 1.61862C14.118 1.61219 14.4597 1.61034 14.7835 1.6012C14.8167 1.6003 14.8472 1.59586 14.8548 1.59271C14.8599 1.59102 14.8165 1.58796 14.7884 1.58655C14.7553 1.58493 14.7119 1.58333 14.6762 1.58381C13.6231 1.59966 12.57 1.61571 11.5168 1.63156C11.3689 1.63391 11.3689 1.6337 11.0096 1.65733C10.979 1.65927 10.9433 1.66142 10.905 1.66211C10.7367 1.66492 10.5659 1.66668 10.4002 1.67011C10.265 1.67285 10.1528 1.67053 10.0558 1.66317C9.98687 1.65785 9.9154 1.6563 9.82869 1.65687C9.73178 1.65767 9.66809 1.66008 9.61205 1.66583C9.53818 1.67369 9.50004 1.6838 9.34449 1.68616C8.62794 1.6964 7.91136 1.70769 7.19736 1.71855C7.09786 1.71579 7.04936 1.71149 7.0748 1.70621C7.09006 1.70305 7.12063 1.69881 7.15123 1.69834C7.44447 1.69344 7.74026 1.68916 8.0335 1.68447C8.0743 1.68377 8.13041 1.68409 8.15334 1.68195C8.26544 1.67235 8.3061 1.657 8.51777 1.65559C8.64018 1.65475 8.7651 1.6514 8.88238 1.64826C8.91553 1.64737 8.94608 1.64292 8.9537 1.63977C8.95623 1.63809 8.91538 1.63503 8.88476 1.63362C8.77246 1.62774 8.64251 1.63529 8.53024 1.6313C8.49197 1.62991 8.43835 1.62791 8.43067 1.62541C8.42554 1.62312 8.46885 1.61928 8.49943 1.61692C8.52746 1.61478 8.56567 1.61283 8.60392 1.61214C8.94051 1.60674 9.27716 1.60114 9.61376 1.59679C9.75147 1.59508 9.84829 1.58969 9.90939 1.57996C9.95521 1.57276 10.0113 1.5689 10.098 1.56771C10.687 1.55894 11.276 1.54934 11.8676 1.5412C12.0155 1.53927 12.092 1.53224 12.1531 1.52314C12.2015 1.51594 12.2576 1.51333 12.3519 1.51191C13.196 1.49957 14.0349 1.48598 14.8789 1.47405C15.0345 1.4719 15.0803 1.46283 15.1593 1.45495C15.1873 1.45218 15.205 1.4488 15.2407 1.44707C15.2764 1.44533 15.3223 1.44546 15.3657 1.44497C16.0389 1.4348 16.7121 1.42401 17.3879 1.41447C17.546 1.41231 17.5764 1.4018 17.6579 1.39433C17.6859 1.39198 17.7114 1.38818 17.7446 1.38749C18.2495 1.3795 18.7543 1.37193 19.2592 1.36415C19.5958 1.35896 19.9324 1.35378 20.269 1.3488C20.4348 1.34642 20.4348 1.34621 20.659 1.32595C20.6844 1.3236 20.7201 1.32082 20.7533 1.32013C21.7223 1.30506 22.6887 1.29063 23.6577 1.27576C23.7393 1.27458 23.7979 1.26966 23.8386 1.26248C23.8793 1.25529 23.938 1.25038 24.017 1.2492C24.7744 1.23742 25.5317 1.22586 26.2916 1.21471C26.4293 1.21279 26.5261 1.2076 26.5872 1.19808C26.633 1.19089 26.6891 1.18703 26.7758 1.18583C27.5331 1.17448 28.2905 1.16249 29.0504 1.15155C29.1958 1.14941 29.2671 1.14218 29.3384 1.13369C29.3638 1.13071 29.3842 1.12587 29.4148 1.1254C29.7922 1.11888 30.167 1.11217 30.547 1.10753C30.7051 1.10558 30.7585 1.0967 30.8222 1.08822C30.8731 1.08144 30.9318 1.07904 31.0287 1.07803C31.2403 1.07578 31.4494 1.07187 31.6559 1.06795C31.6865 1.06727 31.7247 1.0626 31.7273 1.05967C31.7323 1.05422 31.6736 1.05056 31.5766 1.04884C30.5668 1.06419 29.5545 1.07955 28.5447 1.0949C28.379 1.09749 28.379 1.09749 28.1548 1.11775C28.1293 1.1201 28.0936 1.12288 28.0579 1.12357C27.0889 1.13843 26.1225 1.15308 25.1535 1.16794C25.0719 1.16913 25.0133 1.17404 24.9726 1.18123C24.9319 1.18841 24.8732 1.19332 24.7942 1.19451C23.8685 1.20866 22.9429 1.22303 22.0147 1.23657C21.877 1.23848 21.7802 1.24346 21.7191 1.25319C21.6733 1.26038 21.6172 1.26424 21.5305 1.26544C20.6457 1.27869 19.7634 1.29257 18.876 1.3054C18.7867 1.3066 18.7204 1.30065 18.7254 1.295C18.7279 1.29206 18.766 1.28719 18.7966 1.28672C19.2582 1.27901 19.7172 1.2711 20.1813 1.26506C20.3369 1.26312 20.3826 1.25384 20.4616 1.24596C20.4871 1.2432 20.5074 1.2396 20.5406 1.23808C20.5763 1.23635 20.6222 1.23648 20.6655 1.23598C21.7595 1.21923 22.8534 1.20227 23.9499 1.18635C24.108 1.18398 24.1385 1.17368 24.22 1.16622C24.248 1.16366 24.2735 1.15985 24.3066 1.15937C24.6432 1.15377 24.9798 1.14879 25.3164 1.14381C25.9055 1.13484 26.4945 1.12587 27.0861 1.11689C27.2569 1.11429 27.2569 1.11429 27.476 1.09425C27.5015 1.0919 27.5372 1.08891 27.5704 1.08844C29.1284 1.0646 30.6865 1.04077 32.2445 1.01714C32.3261 1.01595 32.3847 1.01104 32.4254 1.00386C32.4661 0.996883 32.5247 0.991761 32.6038 0.990369C34.71 0.95826 36.8138 0.926155 38.9201 0.894466C39.0578 0.892344 39.1546 0.887782 39.2157 0.877844C39.259 0.870656 39.3176 0.86679 39.4043 0.865384C41.7196 0.830193 44.035 0.795003 46.3529 0.759599C47.911 0.735974 49.469 0.71193 51.0271 0.688723C51.1699 0.686593 51.2463 0.679974 51.3176 0.671273C51.3405 0.668305 51.3634 0.663453 51.394 0.662981C51.728 0.657172 52.0621 0.651781 52.3961 0.646389C52.5008 0.651856 52.6054 0.657114 52.71 0.662581C52.789 0.654494 52.8654 0.646202 52.9444 0.638116C53.4493 0.631172 53.9465 0.620895 54.4565 0.617081C54.4897 0.616814 54.5254 0.620727 54.5612 0.622757C54.7985 0.635524 54.9337 0.634243 55.0839 0.61641C55.1374 0.610041 55.1832 0.604314 55.2648 0.603126C55.5173 0.598922 55.7724 0.595968 56.0222 0.591141C56.1574 0.588606 56.2696 0.590502 56.3666 0.597865C56.4355 0.603184 56.507 0.605362 56.5911 0.603961C57.0552 0.596879 57.5168 0.59001 57.9809 0.58251C58.014 0.582034 58.0445 0.578424 58.07 0.575869C58.1235 0.570337 58.1694 0.564402 58.2203 0.558665C58.2892 0.562101 58.3658 0.564688 58.4219 0.569193C58.4934 0.574508 58.5597 0.574392 58.6566 0.572759C60.5079 0.544232 62.3617 0.516328 64.213 0.487591C64.3711 0.485225 64.4401 0.493892 64.5472 0.498308C64.583 0.499919 64.6187 0.501948 64.6569 0.5023C64.6978 0.502648 64.7411 0.501318 64.7819 0.50062C66.1716 0.479379 67.5614 0.458346 68.9511 0.437105C69.1347 0.434276 69.1347 0.434276 69.4078 0.446772C69.441 0.448388 69.4843 0.450195 69.52 0.449506C70.1524 0.440249 70.7848 0.430365 71.4146 0.420904C71.4962 0.419716 71.5652 0.422943 71.6392 0.427626C71.7847 0.436787 71.7948 0.43677 71.9018 0.422777C71.9527 0.416204 72.0062 0.412135 72.0904 0.410106C72.1821 0.407854 72.2562 0.408356 72.3276 0.411997C72.4297 0.41705 72.5038 0.425706 72.6593 0.423134C73.3325 0.412133 74.0082 0.402802 74.6789 0.391596C74.8319 0.389029 74.9136 0.395999 75.0157 0.401052C75.0514 0.402873 75.0846 0.405744 75.1228 0.406305C75.1611 0.406866 75.207 0.405321 75.2478 0.404622C76.0893 0.391864 76.9333 0.379313 77.7722 0.365723C77.9303 0.363148 77.9993 0.372021 78.1065 0.376438C78.1422 0.378049 78.183 0.380908 78.2162 0.380432C78.7211 0.373071 79.2286 0.365284 79.7335 0.357504C79.9145 0.354679 79.9145 0.354888 80.1901 0.36717C80.2232 0.368786 80.2667 0.370385 80.3024 0.369904C80.8914 0.361141 81.483 0.352164 82.072 0.343192C82.2531 0.340367 82.2531 0.340368 82.776 0.350338C82.8143 0.351108 82.8551 0.352294 82.8934 0.351809C83.5666 0.341645 84.2423 0.331684 84.9155 0.320892C85.0506 0.318774 85.1629 0.320252 85.2599 0.327615C85.3288 0.332934 85.4002 0.335113 85.4844 0.333711C86.2417 0.322146 87.0017 0.310994 87.7564 0.298805C87.9018 0.296461 87.9962 0.300897 88.0983 0.306787C88.1314 0.308821 88.1647 0.311693 88.2029 0.312463C88.2412 0.313233 88.2846 0.312321 88.3253 0.311622C89.0827 0.300056 89.8426 0.289114 90.5974 0.276716C90.7503 0.27415 90.8321 0.28112 90.9341 0.286172C90.9699 0.287993 91.0082 0.291692 91.0388 0.29143C91.3346 0.28736 91.6304 0.283709 91.9236 0.27797C92.0817 0.274767 92.1507 0.284268 92.2578 0.288684C92.2936 0.290087 92.3344 0.293155 92.3675 0.292679C92.9999 0.283423 93.6324 0.273748 94.2622 0.263868C94.3515 0.262458 94.4178 0.264224 94.4893 0.269539C94.5837 0.276696 94.6934 0.279434 94.8311 0.276894C95.1244 0.271574 95.4202 0.267714 95.716 0.263225C95.8894 0.260623 95.8894 0.260624 96.42 0.27058C96.4582 0.271351 96.499 0.272534 96.5373 0.272049C97.0422 0.264478 97.5496 0.257112 98.052 0.248918C98.1871 0.246592 98.2994 0.248279 98.3964 0.255641C98.4653 0.260961 98.5342 0.263143 98.6209 0.261738C99.085 0.254656 99.5466 0.247578 100.011 0.240496C100.179 0.237903 100.347 0.233635 100.516 0.233342C100.638 0.233339 100.727 0.243225 100.837 0.248055C100.868 0.249466 100.919 0.247706 100.959 0.247216C101.549 0.238244 102.14 0.229894 102.727 0.21988C102.88 0.217314 102.961 0.224284 103.063 0.229336C103.099 0.231157 103.137 0.234856 103.168 0.234594C103.38 0.231925 103.589 0.228424 103.8 0.225337C104.053 0.221551 104.308 0.218598 104.558 0.213562C104.762 0.209442 104.838 0.227508 105.002 0.227852C105.127 0.228263 105.254 0.224486 105.379 0.222595C105.632 0.21881 105.884 0.214606 106.136 0.211239C106.226 0.210038 106.295 0.20657 106.323 0.198991C106.328 0.197517 106.284 0.194456 106.256 0.192622C105.917 0.171874 105.917 0.171873 105.575 0.177069C105.363 0.180365 105.154 0.183657 104.943 0.186535C104.907 0.187016 104.866 0.185413 104.83 0.18422C104.728 0.180841 104.738 0.17664 104.825 0.168958C104.912 0.161277 104.978 0.151959 105.052 0.143253C105.156 0.148511 105.258 0.15377 105.363 0.159028C105.447 0.157836 105.531 0.156436 105.615 0.155244C106.036 0.149074 106.457 0.142695 106.878 0.136944C106.908 0.136472 106.947 0.14059 106.982 0.14262C107.084 0.148509 107.176 0.153578 107.324 0.15102C107.702 0.144298 108.082 0.139245 108.459 0.13336C108.625 0.130771 108.625 0.130771 108.916 0.143236C108.949 0.144643 108.992 0.146241 109.028 0.145761C109.408 0.140289 109.785 0.134405 110.165 0.128724C110.247 0.127537 110.326 0.130119 110.385 0.136083C110.408 0.138554 110.403 0.142745 110.5 0.176884C110.801 0.204183 111.008 0.200897 111.217 0.198024C111.306 0.196823 111.385 0.195639 111.444 0.191353C111.474 0.188999 111.512 0.185585 111.512 0.182865C111.512 0.180773 111.456 0.177523 111.421 0.177167C111.168 0.173422 110.928 0.182625 110.681 0.184937C110.566 0.185974 110.467 0.178825 110.446 0.166936C110.441 0.163598 110.433 0.160055 110.426 0.156722C110.418 0.153388 110.413 0.149841 110.405 0.146507C110.306 0.145634 110.247 0.149501 110.204 0.156688C110.168 0.162608 110.117 0.16939 110.048 0.172648C109.98 0.176114 109.885 0.175652 109.801 0.176844C109.719 0.178031 109.63 0.180906 109.554 0.179574C109.477 0.178033 109.416 0.172072 109.344 0.168431C109.311 0.166606 109.27 0.163958 109.237 0.164434C108.944 0.1685 108.653 0.17256 108.363 0.177667C108.21 0.180443 108.133 0.171791 108.036 0.16652C107.959 0.162469 107.883 0.163647 107.87 0.173292C107.837 0.19636 107.955 0.205778 108.215 0.200934C108.429 0.196796 108.623 0.195834 108.791 0.209767C108.814 0.211609 108.868 0.212353 108.901 0.211877C109.11 0.209003 109.317 0.205507 109.526 0.202633C109.564 0.202148 109.605 0.202913 109.641 0.203687C110.161 0.21408 110.161 0.21429 110.337 0.211474C110.421 0.210073 110.503 0.208885 110.495 0.177102C110.655 0.142725 110.91 0.139982 111.157 0.134532C111.318 0.131115 111.387 0.1402 111.492 0.14483C111.527 0.146441 111.566 0.149721 111.599 0.149245C112.147 0.14139 112.693 0.133119 113.238 0.124431C113.33 0.123017 113.396 0.124157 113.468 0.129472C113.56 0.136216 113.662 0.140432 113.807 0.13767C114.098 0.132144 114.394 0.128493 114.69 0.123796C114.84 0.121442 114.84 0.12144 115.144 0.133883C115.177 0.13529 115.22 0.136888 115.256 0.136408C115.552 0.132338 115.845 0.127437 116.138 0.123162C116.22 0.121974 116.294 0.124774 116.358 0.130311C116.421 0.135849 116.498 0.138644 116.577 0.137461C116.873 0.133182 117.166 0.12849 117.459 0.124215C117.495 0.123735 117.538 0.125124 117.572 0.126531C117.883 0.13896 117.883 0.138958 118.026 0.136618C118.235 0.133117 118.449 0.131282 118.656 0.126739C118.857 0.122206 118.962 0.134156 119.1 0.140611C119.477 0.135144 119.857 0.130511 120.232 0.124002C120.385 0.121226 120.466 0.127987 120.568 0.133249C120.604 0.135069 120.64 0.138982 120.673 0.138716C120.801 0.137657 120.926 0.13514 121.051 0.133249C121.176 0.131359 121.303 0.129464 121.428 0.127573C121.571 0.133392 121.665 0.147452 121.869 0.142287C121.992 0.139146 122.122 0.138292 122.247 0.136402C122.372 0.134511 122.499 0.132616 122.624 0.130726C122.708 0.129534 122.795 0.128755 122.877 0.12673C123.027 0.123331 123.101 0.133454 123.208 0.13787C123.244 0.139272 123.285 0.14171 123.318 0.141234C123.57 0.137867 123.825 0.134914 124.073 0.129673C124.264 0.125576 124.394 0.131626 124.529 0.140177C124.557 0.142011 124.606 0.142973 124.642 0.142493C124.937 0.138423 125.231 0.133519 125.524 0.129244C125.603 0.128061 125.68 0.131275 125.743 0.136603C125.81 0.142136 125.884 0.144729 125.965 0.143542C126.259 0.139267 126.554 0.134568 126.848 0.130293C126.883 0.129813 126.927 0.131411 126.96 0.133027C127.246 0.145501 127.246 0.14571 127.414 0.142908C127.455 0.142209 127.498 0.141714 127.539 0.141015C127.748 0.137724 127.965 0.136303 128.169 0.130928C128.403 0.124872 128.574 0.131688 128.74 0.143324C128.949 0.140451 129.164 0.138614 129.368 0.134076C129.521 0.130672 129.602 0.138479 129.704 0.143532C129.74 0.145352 129.778 0.149051 129.809 0.14858C130.105 0.14451 130.401 0.140859 130.691 0.135125C130.849 0.131922 130.918 0.141214 131.025 0.145839C131.061 0.14745 131.099 0.150314 131.133 0.149838C131.301 0.147872 131.469 0.145068 131.638 0.142475C131.834 0.139415 131.834 0.139624 132.094 0.151932C132.217 0.157786 132.339 0.152762 132.459 0.151089C132.586 0.149195 132.706 0.147732 132.808 0.156131C132.872 0.161459 132.949 0.164674 133.028 0.1637C133.196 0.161525 133.367 0.159346 133.533 0.15592C133.665 0.15318 133.78 0.154653 133.877 0.162225C133.946 0.167544 134.017 0.170141 134.102 0.16874C134.479 0.163064 134.859 0.157172 135.236 0.151705C135.269 0.151229 135.315 0.153033 135.346 0.154863C135.417 0.158504 135.486 0.162567 135.555 0.166631C135.721 0.164461 135.892 0.163329 136.055 0.160117C136.229 0.156887 136.387 0.155567 136.522 0.166837C136.55 0.169299 136.591 0.172782 136.624 0.172515C136.752 0.171457 136.876 0.169149 137.001 0.167258C137.126 0.165368 137.254 0.163473 137.379 0.161582C137.524 0.16656 137.616 0.181461 137.82 0.176296C137.943 0.173155 138.073 0.172301 138.198 0.170411C138.323 0.16852 138.45 0.166416 138.575 0.164735C138.616 0.164245 138.662 0.163119 138.697 0.163894C138.736 0.164664 138.769 0.167536 138.802 0.16957C138.904 0.17546 138.999 0.181363 139.144 0.177554C139.266 0.174413 139.396 0.173559 139.521 0.17146C139.692 0.168862 139.692 0.168862 139.975 0.181549C140.09 0.186789 140.22 0.179451 140.33 0.183863C140.404 0.186872 140.468 0.19199 140.539 0.195422C140.57 0.196833 140.618 0.197376 140.654 0.196895C140.822 0.19472 140.993 0.192542 141.159 0.189116C141.294 0.186371 141.406 0.188686 141.501 0.196053C141.57 0.201372 141.639 0.203555 141.725 0.202149C142.146 0.195561 142.567 0.189808 142.985 0.182597C143.128 0.180048 143.243 0.183406 143.322 0.190799C143.457 0.203534 143.648 0.187931 143.789 0.198147C143.875 0.204481 143.962 0.211862 144.12 0.20845C144.411 0.202506 144.707 0.199062 145 0.194787C145.105 0.200253 145.209 0.205721 145.316 0.211183C145.485 0.20859 145.653 0.205995 145.821 0.203611C145.946 0.20172 146.074 0.199616 146.199 0.197935C146.24 0.197446 146.283 0.196533 146.321 0.197513C146.359 0.198492 146.39 0.201159 146.426 0.203189C146.602 0.213134 146.602 0.213344 146.893 0.208655C147.018 0.206556 147.137 0.205092 147.242 0.213278C147.339 0.22085 147.454 0.222114 147.586 0.219583C147.836 0.214965 148.089 0.211389 148.344 0.208017C148.423 0.206834 148.497 0.210262 148.563 0.215585C148.663 0.223989 148.785 0.22294 148.91 0.220422C149.076 0.217206 149.239 0.213994 149.379 0.225465C149.408 0.227927 149.451 0.231406 149.482 0.231143C149.691 0.229106 149.902 0.227485 150.106 0.223156C150.31 0.218827 150.41 0.231623 150.55 0.237655C150.759 0.234573 150.971 0.231485 151.18 0.228403C151.221 0.227704 151.269 0.225739 151.305 0.226723C151.456 0.230854 151.543 0.246392 151.749 0.241222C151.869 0.238295 151.999 0.237233 152.124 0.236388C152.157 0.236122 152.2 0.239601 152.223 0.24228C152.236 0.243722 152.224 0.247719 152.208 0.249837C152.162 0.255774 152.106 0.261312 152.066 0.26745C152.061 0.268295 152.109 0.271975 152.137 0.2736C152.206 0.277246 152.285 0.276482 152.377 0.274649C152.456 0.273048 152.538 0.275834 152.594 0.282012C152.617 0.284483 152.609 0.28868 152.561 0.30257C152.561 0.31282 152.614 0.308124 152.632 0.301399C152.66 0.291728 152.607 0.288683 152.505 0.29409C152.433 0.29798 152.398 0.303481 152.416 0.307843C152.426 0.310126 152.474 0.312971 152.561 0.30257C152.785 0.289629 152.953 0.287037 153.122 0.284443C153.165 0.28374 153.216 0.281559 153.247 0.282761C153.356 0.287591 153.459 0.293481 153.566 0.298943C153.688 0.297475 153.803 0.294137 153.923 0.302087C154.091 0.3133 154.099 0.312241 154.262 0.309656C154.346 0.308255 154.43 0.307065 154.515 0.305873C154.599 0.304681 154.665 0.307702 154.739 0.312385C154.89 0.321956 154.902 0.321933 155.002 0.308372C155.06 0.300112 155.101 0.297322 155.175 0.300959C155.42 0.313294 155.423 0.314126 155.632 0.309998C155.805 0.306558 155.968 0.305438 156.096 0.317141C156.183 0.325358 156.211 0.323426 156.28 0.314521C156.463 0.290982 156.547 0.291254 156.892 0.307391C157.052 0.315061 157.218 0.306197 157.381 0.304868C157.519 0.303792 157.616 0.308643 157.626 0.321804C157.634 0.329949 157.657 0.335768 157.749 0.338328C157.785 0.339312 157.828 0.3407 157.864 0.34022C158.075 0.337342 158.284 0.334049 158.496 0.330753C158.603 0.329103 158.662 0.319171 158.641 0.306237C158.618 0.29247 158.659 0.287377 158.812 0.283137C158.903 0.280676 158.978 0.280968 159.052 0.284605C159.133 0.288647 159.11 0.292452 159.039 0.300107C158.868 0.318812 158.889 0.330071 159.108 0.34245C159.185 0.34671 159.246 0.35058 159.264 0.357034C159.274 0.360364 159.264 0.364774 159.287 0.367244C159.412 0.381043 159.586 0.389738 159.78 0.396095C159.966 0.390124 160.093 0.399314 160.236 0.406597C160.349 0.412259 160.481 0.40701 160.601 0.40471C160.736 0.402174 160.848 0.403652 160.945 0.411223C161.014 0.416543 161.086 0.418928 161.17 0.417736C161.338 0.415143 161.509 0.413382 161.675 0.409747C161.818 0.406571 161.925 0.410569 162.014 0.417526C162.127 0.426326 162.251 0.420042 162.369 0.421093C162.527 0.422283 162.606 0.440763 162.813 0.435383C162.935 0.432242 163.063 0.430975 163.19 0.429917C163.223 0.42965 163.264 0.433136 163.292 0.435598C163.427 0.446868 163.586 0.445966 163.759 0.442318C163.879 0.439808 163.996 0.437514 164.114 0.445259C164.308 0.458311 164.522 0.469654 164.726 0.481642C164.754 0.491216 164.734 0.502545 164.879 0.507941C164.956 0.510736 165.027 0.515007 165.086 0.519716C165.158 0.52524 165.224 0.52659 165.316 0.524966C165.481 0.52175 165.655 0.520819 165.818 0.51677C165.969 0.513162 166.063 0.519903 166.155 0.526229C166.229 0.53133 166.298 0.533719 166.387 0.529799C166.479 0.526083 166.545 0.528268 166.619 0.533788C166.724 0.541346 166.731 0.540498 167.078 0.542196C167.114 0.542343 167.157 0.545404 167.178 0.548088C167.188 0.549535 167.165 0.553761 167.147 0.555884C167.124 0.558434 167.089 0.561423 167.056 0.562108C166.678 0.568202 166.298 0.573674 165.921 0.579768C165.883 0.580462 165.842 0.581999 165.814 0.584139C165.783 0.586494 165.745 0.589696 165.745 0.592625C165.745 0.594716 165.796 0.597139 165.832 0.598541C165.944 0.603158 166.077 0.595606 166.186 0.600854C166.26 0.604282 166.322 0.609195 166.396 0.612414C166.426 0.613825 166.475 0.613533 166.513 0.613048C166.641 0.611362 166.765 0.609053 166.893 0.607577C166.929 0.607306 166.969 0.609328 167.003 0.610944C167.248 0.62307 167.248 0.623069 167.459 0.619982C167.543 0.61879 167.633 0.615497 167.712 0.616614C167.788 0.617737 167.855 0.62327 167.924 0.626706C168.067 0.633989 168.202 0.641076 168.212 0.657375C168.217 0.663641 168.302 0.668933 168.386 0.669205C168.467 0.669482 168.554 0.667032 168.638 0.665631C168.837 0.662775 168.837 0.662775 169.095 0.675088C169.166 0.678521 169.243 0.678805 169.335 0.676554C169.37 0.675655 169.414 0.676418 169.452 0.677397C169.577 0.680318 169.577 0.684292 169.495 0.691964C169.381 0.70325 169.391 0.704279 169.712 0.713135C169.835 0.716478 169.929 0.723009 170.031 0.728689C170.197 0.737814 170.195 0.737817 170.085 0.75035C170.06 0.753113 170.037 0.756083 170.011 0.759056C169.938 0.767342 169.879 0.77623 169.726 0.777332C169.558 0.778461 169.389 0.782102 169.221 0.784695C169.058 0.78728 169.015 0.792374 169.03 0.806572C169.048 0.823694 169.081 0.82552 169.375 0.824801C169.459 0.824655 169.533 0.8262 169.597 0.831737C169.566 0.838484 169.51 0.843811 169.428 0.845208C169.219 0.848709 169.008 0.851797 168.799 0.85488C168.63 0.857473 168.462 0.860066 168.294 0.862659C168.189 0.864305 168.123 0.875299 168.151 0.887383C168.167 0.89426 168.179 0.90114 168.192 0.908022C168.22 0.921779 168.274 0.925243 168.445 0.924319C168.488 0.924035 168.529 0.922289 168.57 0.922636C168.736 0.923813 168.815 0.941038 169.014 0.937136C169.18 0.933919 169.353 0.932991 169.516 0.928942C169.667 0.925334 169.751 0.932721 169.855 0.938187C169.891 0.940008 169.93 0.943914 169.96 0.943651C170.172 0.940983 170.383 0.938316 170.59 0.933982C170.687 0.932141 170.746 0.933293 170.822 0.938181C171.006 0.949995 171.011 0.949358 171.284 0.945119C171.483 0.941845 171.485 0.942259 171.741 0.954576C171.812 0.958008 171.888 0.957875 171.98 0.956042C172.1 0.953742 172.225 0.950178 172.35 0.953099C172.388 0.953869 172.437 0.956296 172.45 0.958993C172.457 0.960863 172.422 0.965527 172.391 0.967045C172.167 0.978312 171.904 0.976886 171.659 0.981704C171.583 0.983092 171.506 0.97925 171.442 0.973713C171.376 0.96818 171.305 0.966004 171.218 0.9672C171.05 0.969793 170.879 0.971554 170.713 0.975189C170.57 0.978365 170.471 0.973726 170.371 0.967414C170.338 0.96538 170.3 0.961471 170.266 0.961738C169.889 0.966577 169.509 0.971422 169.134 0.97793C168.984 0.980702 168.897 0.974159 168.795 0.968688C168.759 0.966868 168.723 0.962955 168.69 0.963221C168.563 0.96428 168.438 0.966797 168.31 0.968692C167.846 0.975774 167.385 0.982852 166.921 0.989515C166.89 0.989986 166.852 0.985659 166.816 0.983839C166.747 0.980193 166.676 0.97676 166.604 0.973328C166.477 0.975223 166.352 0.977532 166.224 0.979008C166.132 0.980005 166.051 0.983076 166.038 0.991047C166.031 0.99629 166.115 1.00095 166.204 1.00038C166.291 0.999812 166.377 0.997151 166.449 0.999747C166.804 1.01252 166.804 1.01273 167.025 1.00962C167.219 1.00678 167.199 1.00472 167.37 1.01593C167.444 1.02082 167.51 1.02364 167.594 1.02223C167.803 1.01894 168.015 1.01565 168.227 1.01277C168.26 1.01229 168.303 1.01431 168.336 1.01592C168.586 1.02804 168.586 1.02846 168.793 1.02496C169.063 1.02073 169.074 1.01966 169.255 1.03211C169.38 1.04068 169.495 1.03441 169.614 1.03379C169.752 1.04171 169.903 1.04877 170.028 1.05775C170.176 1.06838 170.331 1.06622 170.5 1.06279C170.625 1.06027 170.747 1.05922 170.849 1.06762C170.946 1.0754 171.064 1.07604 171.196 1.07372C171.316 1.07163 171.438 1.06744 171.563 1.07182C171.597 1.07302 171.648 1.07607 171.645 1.07796C171.643 1.08089 171.609 1.08513 171.576 1.08644C171.342 1.09543 171.084 1.09567 170.837 1.10007C170.804 1.10076 170.76 1.09853 170.727 1.09691C170.656 1.09327 170.587 1.089 170.518 1.08514C170.393 1.08662 170.265 1.08726 170.143 1.08998C170.049 1.09202 169.977 1.09194 169.908 1.08704C169.844 1.08255 169.776 1.07702 169.699 1.07569C169.623 1.07436 169.533 1.07765 169.449 1.07905C169.365 1.08045 169.268 1.07999 169.202 1.08345C169.136 1.08692 169.095 1.09431 169.052 1.10024C169.003 1.10681 168.937 1.10902 168.84 1.10982C168.751 1.1106 168.679 1.10988 168.613 1.10414C168.585 1.10168 168.547 1.09986 168.508 1.09826C168.473 1.09685 168.432 1.09462 168.399 1.0951C168.019 1.10057 167.641 1.10646 167.261 1.11214C167.073 1.11498 167.075 1.11497 166.682 1.10331C166.646 1.10233 166.603 1.10094 166.567 1.10142C166.356 1.1043 166.147 1.10759 165.935 1.11088C165.721 1.11418 165.723 1.11376 165.359 1.10122C165.292 1.09882 165.195 1.10234 165.116 1.10206C164.95 1.1013 164.869 1.08387 164.675 1.08755C164.509 1.09077 164.336 1.0917 164.17 1.09575C164.019 1.09936 163.933 1.09219 163.831 1.08672C163.795 1.0849 163.757 1.08078 163.726 1.08125C163.346 1.08651 162.969 1.0924 162.464 1.0939C162.339 1.09412 162.395 1.09842 162.476 1.09974C162.594 1.10184 162.632 1.09738 162.568 1.08912C162.522 1.08334 162.456 1.08053 162.402 1.08208C162.374 1.08297 162.339 1.08701 162.464 1.0939C162.596 1.10162 162.589 1.10603 162.612 1.1085C162.668 1.11447 162.747 1.11684 162.829 1.11586C162.956 1.11417 163.081 1.11187 163.209 1.11039C163.244 1.10991 163.288 1.1113 163.321 1.11291C163.602 1.1254 163.604 1.12623 163.902 1.12069C163.997 1.11906 164.066 1.11894 164.14 1.12279C164.242 1.12805 164.316 1.13713 164.471 1.13393C164.678 1.12959 164.89 1.12693 165.101 1.12426C165.134 1.12378 165.17 1.12748 165.208 1.12909C165.313 1.13393 165.39 1.14321 165.545 1.13897C165.665 1.13562 165.795 1.13456 165.923 1.13371C165.956 1.13344 166.007 1.1367 166.022 1.13939C166.053 1.14415 166.015 1.14987 165.928 1.15399C165.892 1.15573 165.844 1.15539 165.803 1.15609C165.635 1.15868 165.466 1.16149 165.298 1.16366C165.209 1.16486 165.125 1.16815 165.115 1.1759C165.107 1.18115 165.199 1.18559 165.286 1.18502C165.413 1.18417 165.541 1.18228 165.663 1.17934C165.88 1.17437 166.068 1.17529 166.245 1.18817C166.37 1.19715 166.362 1.19382 166.495 1.22078C166.528 1.22763 166.628 1.22808 166.714 1.22752C166.923 1.22611 167.02 1.22908 167.003 1.23559C166.98 1.24358 166.906 1.24622 166.811 1.24743C166.643 1.24939 166.475 1.25241 166.307 1.255C166.266 1.2557 166.22 1.25703 166.182 1.25668C166.143 1.25633 166.108 1.25388 166.074 1.25206C166.003 1.24821 165.942 1.24224 165.865 1.24091C165.789 1.23958 165.699 1.24287 165.615 1.24428C165.531 1.24547 165.442 1.24876 165.365 1.24743C165.289 1.2461 165.225 1.23993 165.156 1.23629C165.123 1.23446 165.082 1.2316 165.049 1.23187C164.881 1.23384 164.712 1.23685 164.544 1.23923C164.338 1.24231 164.338 1.24231 164.087 1.22978C164.016 1.22614 163.942 1.22647 163.848 1.22831C163.644 1.23201 163.641 1.23139 163.269 1.2199C163.233 1.21871 163.189 1.21732 163.154 1.21801C162.774 1.22348 162.396 1.22937 162.019 1.23504C161.695 1.24 161.695 1.24 161.517 1.26123C161.384 1.27694 161.382 1.27694 161.512 1.28383C161.617 1.2895 161.711 1.29792 161.826 1.30085C161.933 1.3036 162.066 1.29395 162.183 1.30337C162.242 1.30808 162.318 1.31318 162.392 1.31389C162.51 1.31473 162.635 1.30845 162.747 1.31745C162.803 1.32196 162.887 1.32663 162.959 1.32671C163.084 1.32691 163.211 1.32334 163.336 1.32166C163.374 1.32118 163.418 1.3211 163.453 1.32209C163.492 1.32327 163.525 1.32573 163.558 1.32776C163.66 1.3347 163.77 1.33785 163.902 1.33407C164.119 1.32783 164.313 1.33042 164.482 1.34352C164.505 1.34536 164.561 1.34548 164.596 1.34458C164.688 1.34233 164.767 1.34198 164.836 1.34583C164.864 1.34746 164.905 1.35031 164.9 1.35221C164.892 1.35536 164.862 1.35959 164.829 1.3607C164.589 1.36823 164.331 1.36951 164.084 1.37371C164.051 1.37418 164.01 1.37153 163.977 1.36971C163.905 1.36607 163.844 1.3599 163.768 1.35857C163.691 1.35724 163.602 1.36011 163.518 1.3613C163.434 1.36249 163.344 1.36579 163.268 1.36467C163.191 1.36333 163.12 1.35823 163.059 1.35373C162.987 1.34863 162.918 1.34812 162.824 1.35038C162.701 1.35331 162.574 1.35395 162.449 1.35563C162.38 1.35177 162.311 1.3475 162.24 1.34386C162.207 1.34203 162.166 1.3398 162.13 1.34007C161.962 1.34204 161.793 1.34484 161.625 1.34743C161.457 1.35003 161.457 1.35003 161.171 1.33756C161.138 1.33615 161.094 1.33455 161.059 1.33503C160.847 1.33791 160.638 1.34141 160.426 1.34429C160.345 1.34547 160.271 1.34267 160.204 1.33714C160.141 1.3316 160.064 1.3286 159.985 1.32978C159.648 1.33476 159.312 1.33953 158.975 1.34534C158.84 1.34767 158.725 1.34599 158.633 1.33862C158.526 1.33022 158.406 1.33253 158.281 1.33442C157.998 1.33909 157.996 1.33888 157.814 1.32853C157.779 1.3265 157.743 1.32259 157.71 1.32285C157.417 1.3265 157.121 1.32994 156.83 1.33547C156.677 1.33846 156.595 1.33128 156.493 1.32601C156.458 1.32419 156.419 1.32029 156.389 1.32076C156.177 1.32343 155.965 1.32589 155.759 1.33043C155.552 1.33497 155.473 1.31565 155.317 1.31613C155.106 1.31671 154.897 1.32189 154.688 1.32518C154.519 1.32777 154.351 1.33036 154.183 1.33296C154.014 1.33555 153.846 1.33772 153.678 1.34074C153.589 1.34235 153.522 1.34059 153.448 1.33549C153.354 1.32875 153.241 1.3235 153.139 1.31741C152.984 1.30868 152.984 1.30868 152.795 1.31152C152.754 1.31222 152.711 1.31271 152.67 1.31341C152.362 1.31855 152.362 1.31813 151.969 1.30563C151.951 1.30504 151.905 1.30742 151.887 1.30912C151.834 1.31465 151.785 1.32059 151.737 1.32633C151.668 1.3231 151.584 1.32136 151.538 1.31663C151.407 1.30326 151.204 1.32223 151.071 1.30907C151.022 1.30414 150.938 1.29989 150.862 1.29877C150.783 1.29765 150.693 1.30073 150.612 1.30213C150.4 1.30564 150.4 1.30543 150.219 1.32436C150.127 1.33372 149.995 1.33228 149.875 1.33458C149.75 1.3371 149.63 1.33856 149.526 1.33017C149.431 1.32259 149.316 1.32091 149.181 1.32365C149.015 1.32708 148.845 1.32926 148.676 1.33143C148.641 1.33191 148.597 1.33094 148.561 1.32975C148.171 1.31808 148.171 1.31788 147.982 1.32092C147.898 1.32232 147.812 1.32289 147.73 1.32492C147.592 1.3285 147.488 1.32429 147.388 1.31777C147.355 1.31574 147.317 1.31183 147.283 1.3121C147.115 1.31343 146.949 1.3156 146.784 1.31777C146.656 1.31946 146.529 1.32052 146.406 1.32366C146.202 1.32883 146.103 1.3154 145.962 1.30937C145.753 1.31245 145.542 1.3147 145.332 1.31883C145.236 1.32067 145.172 1.32016 145.098 1.31526C145.003 1.30915 144.917 1.30219 144.764 1.30559C144.56 1.31013 144.345 1.31197 144.136 1.31484C143.996 1.3086 143.894 1.2956 143.692 1.30076C143.57 1.3039 143.44 1.30475 143.315 1.30664C143.147 1.30924 142.978 1.31162 142.81 1.31443C142.629 1.31725 142.632 1.31662 142.353 1.30476C142.193 1.29772 142.027 1.30616 141.864 1.3077C141.736 1.30897 141.673 1.3187 141.703 1.33099C141.734 1.34328 141.665 1.35302 141.548 1.3549C141.255 1.35938 140.959 1.36408 140.666 1.36814C140.63 1.36862 140.587 1.36724 140.554 1.36583C140.24 1.3532 140.24 1.35341 140.099 1.35553C139.89 1.35903 139.676 1.36108 139.47 1.36541C139.327 1.36838 139.222 1.36417 139.13 1.35722C139.059 1.3519 138.992 1.35076 138.901 1.35218C137.891 1.36794 136.881 1.38267 135.874 1.39885C135.723 1.4012 135.637 1.39529 135.535 1.38982C135.499 1.388 135.466 1.38408 135.43 1.38414C135.346 1.38429 135.262 1.38632 135.177 1.38772C134.8 1.3934 134.423 1.40012 134.043 1.40454C133.882 1.40649 133.839 1.41619 133.77 1.42426C133.717 1.43042 133.655 1.43304 133.561 1.43404C133.469 1.43503 133.403 1.4341 133.331 1.42879C133.239 1.42183 133.135 1.41762 132.992 1.4208C132.826 1.42443 132.658 1.42619 132.487 1.42879C132.4 1.42999 132.334 1.43387 132.306 1.44145C132.301 1.44271 132.355 1.44576 132.385 1.44759C132.488 1.45368 132.585 1.46084 132.699 1.46503C132.817 1.46922 132.944 1.46398 133.067 1.46251C133.11 1.46201 133.151 1.46069 133.191 1.46083C133.23 1.46097 133.276 1.46194 133.304 1.46377C133.437 1.47295 133.577 1.4792 133.76 1.47323C133.919 1.47567 134 1.49289 134.202 1.48794C134.324 1.48501 134.452 1.48353 134.579 1.48227C134.612 1.482 134.648 1.4857 134.684 1.48752C134.786 1.49258 134.868 1.5008 135.021 1.49698C135.184 1.49293 135.357 1.492 135.523 1.48879C135.615 1.48695 135.681 1.4883 135.753 1.49362C135.844 1.50036 135.949 1.50541 136.092 1.50181C136.214 1.49867 136.344 1.49782 136.469 1.49572C136.632 1.49313 136.632 1.49334 136.923 1.50581C136.957 1.50721 137 1.50881 137.036 1.50833C137.247 1.50545 137.456 1.50195 137.668 1.49908C137.75 1.49789 137.829 1.50047 137.885 1.50644C137.908 1.50891 137.9 1.51311 137.908 1.51665C137.487 1.52303 137.066 1.52857 136.648 1.5362C136.49 1.5392 136.419 1.53074 136.314 1.52611C136.278 1.5245 136.24 1.52101 136.207 1.52149C135.911 1.52556 135.618 1.52983 135.325 1.53494C135.233 1.53657 135.164 1.53585 135.095 1.5299C134.919 1.5141 134.705 1.52326 134.506 1.52591C134.353 1.52784 134.304 1.53441 134.322 1.54819C134.346 1.56447 134.437 1.56933 134.672 1.56599C134.756 1.5648 134.84 1.56319 134.924 1.56221C135.006 1.56123 135.08 1.56382 135.146 1.56935C135.21 1.57489 135.287 1.57768 135.366 1.57671C135.534 1.57453 135.705 1.57236 135.868 1.56893C136.003 1.56619 136.116 1.56809 136.21 1.57566C136.315 1.58406 136.437 1.58196 136.56 1.57987C136.845 1.57519 136.848 1.57539 137.026 1.58554C137.062 1.58757 137.098 1.59148 137.131 1.59122C137.424 1.58757 137.72 1.58434 138.008 1.57882C138.159 1.57604 138.245 1.58259 138.345 1.58785C138.381 1.58967 138.416 1.5938 138.45 1.59332C138.661 1.59065 138.873 1.58798 139.079 1.58365C139.176 1.5816 139.235 1.58275 139.314 1.58763C139.503 1.59965 139.508 1.59922 139.776 1.59478C139.857 1.59338 139.947 1.59093 140.023 1.59247C140.1 1.59401 140.161 1.59997 140.232 1.60361C140.266 1.60523 140.306 1.60746 140.342 1.60698C140.51 1.60501 140.679 1.60221 140.847 1.59962C141.005 1.59704 141.005 1.59725 141.301 1.60971C141.421 1.61494 141.546 1.61012 141.666 1.60824C141.796 1.60613 141.913 1.60592 142.013 1.61391C142.112 1.6219 142.232 1.62127 142.36 1.61937C142.48 1.61749 142.602 1.61268 142.724 1.61811C143.005 1.6306 143.005 1.6308 143.179 1.62799C143.431 1.624 143.681 1.62022 143.936 1.61663C143.969 1.61616 144.012 1.61859 144.046 1.62021C144.117 1.62385 144.178 1.63002 144.255 1.63135C144.331 1.63289 144.421 1.63023 144.502 1.62883C144.765 1.6244 144.783 1.6229 144.959 1.63641C145.107 1.64744 145.29 1.63081 145.428 1.64354C145.507 1.65072 145.615 1.65639 145.762 1.65258C145.885 1.64944 146.012 1.64838 146.14 1.64649C146.341 1.64342 146.341 1.64363 146.596 1.65574C146.63 1.65735 146.673 1.65937 146.706 1.65889C146.874 1.65693 147.045 1.65517 147.209 1.65112C147.4 1.64639 147.522 1.65413 147.665 1.66162C147.777 1.66749 147.91 1.66224 148.03 1.65994C148.16 1.65762 148.277 1.65805 148.374 1.66604C148.476 1.67423 148.596 1.67297 148.724 1.67108C148.844 1.6694 148.966 1.66438 149.088 1.67003C149.351 1.68254 149.351 1.68254 149.543 1.6797C149.711 1.6771 149.879 1.6743 150.047 1.67234C150.081 1.67186 150.121 1.67451 150.155 1.67633C150.226 1.67997 150.287 1.68614 150.364 1.68748C150.44 1.68881 150.53 1.68593 150.614 1.68474C150.698 1.68355 150.787 1.68026 150.864 1.68138C150.94 1.6825 151.012 1.68761 151.073 1.6921C151.144 1.69742 151.211 1.69793 151.308 1.69567C151.43 1.69274 151.558 1.69189 151.682 1.69021C151.751 1.69406 151.823 1.69791 151.889 1.70219C151.958 1.70667 152.032 1.70612 152.126 1.7045C152.44 1.69893 152.443 1.69955 152.705 1.71207C152.825 1.71772 152.95 1.71269 153.07 1.71102C153.198 1.70912 153.318 1.70808 153.417 1.71627C153.514 1.72405 153.634 1.72489 153.762 1.72216C153.843 1.72034 153.93 1.71915 154.014 1.71837C154.052 1.7181 154.098 1.71885 154.126 1.72048C154.261 1.72903 154.394 1.73675 154.58 1.73078C154.744 1.73217 154.825 1.74918 155.022 1.74549C155.187 1.74228 155.361 1.74134 155.524 1.7373C155.674 1.73369 155.782 1.73936 155.858 1.74655C155.996 1.75928 156.19 1.74137 156.328 1.75389C156.407 1.76108 156.509 1.76676 156.662 1.76335C156.83 1.75971 156.884 1.76401 156.932 1.77711C156.961 1.78459 156.956 1.79067 156.905 1.79661C156.854 1.80277 156.798 1.80182 156.716 1.79506C156.621 1.78748 156.509 1.78621 156.374 1.78812C156.241 1.79002 156.16 1.77929 156.05 1.77529C155.94 1.77109 155.81 1.77864 155.695 1.77319C155.425 1.76048 155.425 1.76048 155.241 1.76331C155.116 1.7652 154.986 1.76626 154.864 1.7694C154.719 1.77321 154.624 1.76689 154.525 1.76121C154.489 1.75918 154.453 1.75526 154.422 1.75553C154.129 1.75917 153.833 1.76262 153.543 1.76835C153.39 1.77134 153.308 1.76395 153.206 1.7589C153.17 1.75707 153.132 1.75338 153.101 1.75385C152.849 1.75721 152.599 1.76141 152.347 1.76541C152.298 1.77114 152.245 1.77667 152.199 1.78282C152.15 1.78918 152.084 1.79201 151.987 1.79197C151.827 1.79225 151.669 1.80131 151.508 1.7905C151.342 1.7795 151.329 1.78015 151.168 1.78314C150.964 1.78705 150.748 1.78659 150.556 1.79509C150.523 1.79661 150.488 1.80064 150.488 1.80357C150.485 1.80546 150.539 1.80808 150.572 1.8097C150.684 1.81453 150.814 1.80698 150.926 1.81201C151 1.81523 151.062 1.82015 151.136 1.82357C151.166 1.82498 151.212 1.8247 151.253 1.82442C151.296 1.82413 151.337 1.8226 151.378 1.82274C151.416 1.82288 151.457 1.82406 151.488 1.82589C151.628 1.8336 151.776 1.84066 151.901 1.84986C152.024 1.85885 152.138 1.85238 152.261 1.85174C152.751 1.86554 152.751 1.86575 153.08 1.86057C153.161 1.85939 153.245 1.85798 153.33 1.85805C153.365 1.85799 153.399 1.86169 153.434 1.86372C153.536 1.86982 153.633 1.8753 153.776 1.87171C153.898 1.86856 154.029 1.86771 154.153 1.86561C154.322 1.86302 154.322 1.86302 154.608 1.8757C154.679 1.87892 154.756 1.87837 154.847 1.87654C154.926 1.87494 155.008 1.87793 155.064 1.8839C155.087 1.88637 155.08 1.89057 155.087 1.89411C154.835 1.8979 154.58 1.90064 154.335 1.90609C154.177 1.9095 154.105 1.90063 154.001 1.896C153.965 1.89439 153.927 1.8909 153.894 1.89138C153.644 1.89495 153.394 1.89894 153.144 1.90355C153.113 1.90403 153.075 1.9089 153.073 1.91184C153.068 1.91728 153.131 1.9224 153.223 1.92203C153.346 1.92161 153.466 1.91785 153.575 1.92623C153.667 1.93361 153.782 1.93676 153.917 1.93317C153.999 1.93115 154.085 1.931 154.167 1.92918C154.384 1.92379 154.58 1.92449 154.743 1.93843C154.869 1.94198 154.991 1.93821 155.111 1.93612C155.2 1.9345 155.287 1.93289 155.351 1.93675C155.486 1.94488 155.619 1.95302 155.805 1.94705C156.006 1.95256 156.159 1.96463 156.328 1.97438C156.407 1.97905 156.468 1.98167 156.56 1.97837C156.598 1.97705 156.644 1.97697 156.685 1.97627C156.769 1.97508 156.858 1.97178 156.935 1.97291C157.011 1.97424 157.075 1.9802 157.144 1.98384C157.177 1.98567 157.216 1.98874 157.249 1.98847C157.376 1.9872 157.501 1.98489 157.626 1.983C157.751 1.98132 157.876 1.97964 158.001 1.97796C158.106 1.98322 158.213 1.98847 158.317 1.99373C158.486 1.99114 158.654 1.98854 158.82 1.98616C159.006 1.98333 159.006 1.98354 159.274 1.99604C159.394 2.00169 159.521 1.9977 159.636 1.99478C159.827 1.99006 159.955 1.99779 160.09 2.00592C160.118 2.00755 160.169 2.0085 160.202 2.00761C160.335 2.00445 160.45 2.00655 160.547 2.01412C160.616 2.01944 160.685 2.02183 160.769 2.02064C161.062 2.01616 161.355 2.01146 161.648 2.0074C161.684 2.00692 161.725 2.00873 161.758 2.01034C162.018 2.02265 162.021 2.02328 162.212 2.0196C162.383 2.01637 162.541 2.01484 162.676 2.02611C162.705 2.02857 162.748 2.03206 162.779 2.03179C162.988 2.02934 163.199 2.02667 163.406 2.02275C163.5 2.02092 163.567 2.02143 163.641 2.02611C163.735 2.03202 163.819 2.03919 163.975 2.0362C164.406 2.02771 164.408 2.02896 164.919 2.04251C164.954 2.04349 165.003 2.04174 165.043 2.04083C165.13 2.03859 165.194 2.04141 165.271 2.04608C165.442 2.05666 165.447 2.05603 165.61 2.05344C165.735 2.05134 165.865 2.0507 165.987 2.04735C166.176 2.04242 166.301 2.05036 166.441 2.05786C166.554 2.06373 166.684 2.05848 166.803 2.05639C166.934 2.05407 167.051 2.0545 167.148 2.06228C167.214 2.0676 167.286 2.07041 167.37 2.06921C167.663 2.06494 167.956 2.06025 168.25 2.05597C168.285 2.05549 168.329 2.05709 168.362 2.0585C168.653 2.07096 168.653 2.07159 168.941 2.06628C169.033 2.06465 169.109 2.0641 169.178 2.06838C169.244 2.07244 169.316 2.07629 169.385 2.08015C169.51 2.07847 169.637 2.07783 169.76 2.07511C169.854 2.07306 169.92 2.07378 169.994 2.07805C170.091 2.08353 170.173 2.09321 170.326 2.08814C170.405 2.0857 170.497 2.08617 170.576 2.08394C170.67 2.08105 170.734 2.08262 170.808 2.08793C170.9 2.09425 170.994 2.10078 171.142 2.09718C171.305 2.09313 171.479 2.0922 171.645 2.08898C171.736 2.08715 171.8 2.08871 171.874 2.09402C171.966 2.10077 172.071 2.10498 172.214 2.10201C172.504 2.09628 172.507 2.09732 172.79 2.11001C172.861 2.11323 172.938 2.11268 173.03 2.11085C173.109 2.10924 173.19 2.11224 173.247 2.11821C173.3 2.12481 173.295 2.129 173.3 2.13255ZM150.551 0.285351C150.467 0.286543 150.383 0.287944 150.26 0.269957C150.252 0.266833 150.257 0.263059 150.239 0.260371C150.199 0.254794 150.135 0.25093 150.058 0.250435C149.92 0.249838 149.755 0.257237 149.757 0.262671C149.76 0.267269 149.803 0.271168 149.888 0.274787C149.923 0.276189 149.951 0.278651 149.985 0.280267C150.082 0.28491 150.158 0.294192 150.298 0.289137C150.273 0.276212 150.286 0.282674 150.298 0.289137C150.286 0.297108 150.324 0.30269 150.416 0.304832C150.441 0.305415 150.48 0.304929 150.5 0.303639C150.579 0.298899 150.592 0.292603 150.533 0.276179C150.523 0.278916 150.53 0.283712 150.553 0.284928C150.576 0.286143 150.632 0.285001 150.66 0.283488C150.732 0.279389 150.768 0.274097 150.75 0.269735C150.739 0.267452 150.691 0.264607 150.66 0.26466C150.607 0.264753 150.558 0.269439 150.551 0.285351ZM171.203 2.67549C171.017 2.67979 170.803 2.6787 170.616 2.68718C170.583 2.6887 170.55 2.69252 170.548 2.69546C170.545 2.69734 170.596 2.69998 170.627 2.70139C170.696 2.70461 170.772 2.70343 170.861 2.70223C170.997 2.70053 171.076 2.71002 171.18 2.71465C171.214 2.71606 171.257 2.71703 171.293 2.71655C171.499 2.71368 171.703 2.7106 171.91 2.70732C171.945 2.70663 171.984 2.7051 172.014 2.70316C172.116 2.69692 172.106 2.69296 172.006 2.68853C171.897 2.6837 171.81 2.67548 171.698 2.6717C171.537 2.66633 171.374 2.67415 171.203 2.67549ZM156.721 2.85335C156.596 2.85524 156.474 2.85713 156.349 2.85902C156.308 2.85972 156.265 2.86 156.226 2.86091C156.147 2.86251 156.089 2.867 156.051 2.87397C156.109 2.87931 156.181 2.88232 156.26 2.88156C156.385 2.88008 156.507 2.87715 156.632 2.87631C156.767 2.87524 156.846 2.88451 156.951 2.88914C156.984 2.89055 157.025 2.89069 157.063 2.89083C157.252 2.89134 157.367 2.88026 157.331 2.86505C157.305 2.85318 157.208 2.84623 157.091 2.8479C156.968 2.84958 156.843 2.85147 156.721 2.85335ZM172.071 2.3648C172.102 2.36119 172.135 2.35862 172.15 2.35546C172.196 2.34471 172.178 2.33679 172.094 2.32857C171.992 2.31849 171.867 2.32561 171.752 2.32686C171.724 2.32712 171.693 2.33156 171.678 2.33431C171.668 2.33621 171.668 2.34019 171.683 2.3412C171.808 2.34936 171.941 2.35686 172.071 2.3648ZM149.939 1.78528C149.817 1.78716 149.692 1.78864 149.569 1.79115C149.539 1.79183 149.511 1.79585 149.493 1.7986C149.46 1.80368 149.496 1.81052 149.6 1.81097C149.72 1.8116 149.845 1.80783 149.97 1.80594C150.128 1.80357 150.222 1.79566 150.164 1.78907C150.107 1.78268 150.031 1.78156 149.939 1.78528ZM15.6835 1.57139C15.7651 1.57021 15.8492 1.56922 15.9308 1.56762C16.0073 1.56602 16.066 1.56132 16.1041 1.55435C16.0403 1.54902 15.9688 1.54621 15.8898 1.54698C15.7648 1.54845 15.6424 1.55034 15.52 1.55264C15.4435 1.55403 15.3697 1.55876 15.3519 1.5659C15.3341 1.57137 15.505 1.57421 15.6835 1.57139ZM139.148 1.32476C139.181 1.32658 139.214 1.33029 139.247 1.33024C139.329 1.33009 139.413 1.32869 139.49 1.32647C139.523 1.32557 139.548 1.32176 139.563 1.31881C139.574 1.31691 139.571 1.31357 139.556 1.31192C139.482 1.30201 139.186 1.30608 139.137 1.31767C139.132 1.31977 139.145 1.32246 139.148 1.32476ZM131.087 0.193219C131.095 0.196552 131.098 0.199895 131.108 0.203224C131.128 0.209464 131.184 0.21397 131.266 0.216966C131.33 0.211625 131.363 0.205711 131.36 0.19944C131.358 0.196098 131.35 0.192762 131.34 0.189433C131.319 0.183192 131.263 0.178689 131.181 0.175693C131.118 0.180824 131.087 0.186734 131.087 0.193219ZM177.971 2.85285C177.948 2.85561 177.926 2.85837 177.9 2.86092C177.969 2.86687 178.033 2.86864 178.081 2.86521C178.112 2.86306 178.13 2.85989 178.153 2.85713C178.084 2.85119 178.022 2.84962 177.971 2.85285ZM176.385 2.88405C176.419 2.88588 176.449 2.88833 176.485 2.88953C176.544 2.89152 176.597 2.88787 176.638 2.88027C176.605 2.87844 176.574 2.87598 176.538 2.87479C176.48 2.8728 176.426 2.87645 176.385 2.88405ZM177.39 2.84403C177.372 2.84908 177.408 2.8532 177.502 2.85659C177.525 2.85383 177.556 2.85127 177.571 2.84831C177.596 2.84346 177.553 2.83914 177.461 2.83595C177.436 2.83851 177.413 2.84127 177.39 2.84403ZM172.003 2.62787C171.985 2.63292 172.021 2.63704 172.116 2.64044C172.138 2.63768 172.169 2.63511 172.184 2.63216C172.21 2.6273 172.166 2.62298 172.074 2.6198C172.049 2.62235 172.026 2.62511 172.003 2.62787ZM164.65 1.16039C164.627 1.16315 164.604 1.16591 164.579 1.16847C164.648 1.17441 164.712 1.17618 164.76 1.17275C164.791 1.17061 164.808 1.16744 164.831 1.16468C164.762 1.15873 164.701 1.15717 164.65 1.16039ZM157.614 0.387302C157.676 0.38866 157.727 0.385644 157.77 0.377829C157.737 0.376004 157.706 0.373546 157.67 0.372353C157.612 0.370363 157.558 0.374014 157.517 0.381615C157.551 0.38365 157.584 0.385473 157.614 0.387302ZM153.882 0.344624C153.86 0.347383 153.837 0.350142 153.811 0.352697C153.88 0.358644 153.944 0.360415 153.992 0.356984C154.023 0.354839 154.041 0.35167 154.064 0.348911C153.995 0.342964 153.933 0.341606 153.882 0.344624ZM128.578 0.197368C128.555 0.200127 128.532 0.202886 128.506 0.205441C128.575 0.211388 128.639 0.213159 128.688 0.209728C128.718 0.207583 128.736 0.204414 128.759 0.201655C128.69 0.195708 128.629 0.19435 128.578 0.197368ZM2.61142 2.11812C2.57824 2.1163 2.54509 2.11447 2.51446 2.11244C2.44057 2.11821 2.41769 2.12348 2.45854 2.12738C2.48408 2.12985 2.52232 2.13125 2.5555 2.13307C2.63194 2.12729 2.64973 2.12224 2.61142 2.11812Z" fill="#DAB123"/>
</svg>
